<?xml version="1.0" encoding="utf-8"?>
<!-- Generator: Adobe Illustrator 24.0.2, SVG Export Plug-In . SVG Version: 6.00 Build 0)  -->
<svg version="1.1" id="Layer_1" xmlns="http://www.w3.org/2000/svg" xmlns:xlink="http://www.w3.org/1999/xlink" x="0px" y="0px"
	 viewBox="0 0 143.09 153.18" style="enable-background:new 0 0 143.09 153.18;" xml:space="preserve">
<style type="text/css">
	.st0{fill:#FFFFFF;stroke:#211C1C;stroke-width:1.25;stroke-linecap:round;stroke-linejoin:round;stroke-miterlimit:10;}
	.st1{fill:none;stroke:#211C1C;stroke-width:1.25;stroke-linecap:round;stroke-linejoin:round;stroke-miterlimit:10;}
	.st2{fill:#1A1A1A;}
	.st3{fill:#211C1D;}
</style>
<path class="st0" d="M114.78,61.61c0,0-2.12-15.69-1.95-20.68s0.87-12.97,1.4-15.85c0.53-2.89,0.61-4.14,0.39-4.57
	s3.39,4.32,3.39,4.32s-2.04,13.32-1.76,18c0.42,7.18,2.17,14.26,2.17,14.26L114.78,61.61z"/>
<path class="st0" d="M107.17,102.98c0,0-2,3-3,9s4.9,23.28,4.9,23.28l-5.9-1.28c0,0-4.67-13.95-4-20c1-9,5-15,5-15l6-2
	L107.17,102.98z"/>
<path class="st1" d="M22.19,136.39c0,0-2.85-2.25-5.03-3.29c-2.39-1.14-4.04-2.27-3.99-3.74c0.04-1.42,0.27-1.05,0.44-2.27
	c0.19-1.37-1.92-2.54-3.93-3.18c-1.94-0.61-3.72-1.5-3.79-3.21c-0.07-1.71,0.97-1.78,1.16-2.91c0.19-1.11-1.28-1.96-2.7-3.11
	c-1.38-1.12-4.09-2.55-3.63-5.1c0.29-1.61,1.83-1.36,2.7-2.47s-1.37-3.02-1.55-5.43c-0.13-1.71,0.07-3.86,2.49-5.33
	c0,0,3.26-1.4,4.76-0.64c1.5,0.76,3.1,2.05,3.65,2.88c0.1,0.15,1.82,0.51,3.16,0.78c0.97,0.19,1.74,0.94,1.96,1.9l5.01,22.33
	L22.19,136.39z"/>
<g>
	<g>
		<path class="st2" d="M10.79,143.82v-0.73l6.5-1.63c2.67-0.67,4.54-3.06,4.54-5.82V28.1c0-3.15-2.56-5.71-5.71-5.71H3.43v-1.63
			l32.79-7.09v122c0,2.75,1.86,5.14,4.53,5.8l6.51,1.63v0.73H10.79z"/>
		<path class="st3" d="M35.6,14.44v120.63v0.6c0,3.04,2.06,5.67,5.01,6.41l4.49,1.12H12.96l4.48-1.12c2.95-0.74,5.02-3.38,5.02-6.42
			v-0.26V28.1c0-3.5-2.84-6.34-6.34-6.34H4.06v-0.5L35.6,14.44 M36.85,12.89L2.81,20.25v2.76h13.31c2.81,0,5.09,2.28,5.09,5.09
			v107.3v0.26c0,2.47-1.68,4.61-4.07,5.21l-6.97,1.74v1.84h37.72v-1.84l-6.98-1.75h0c-2.39-0.6-4.06-2.74-4.06-5.2v-0.6V12.89
			L36.85,12.89z"/>
	</g>
	<g>
		<path class="st2" d="M56.83,143.82c8.09-8.78,15.8-17.09,22.95-24.71c7.46-7.95,14.06-15.8,19.64-23.33
			c5.58-7.55,10.07-15.14,13.32-22.57c3.27-7.47,4.93-15.38,4.93-23.53c0-6.03-0.63-11.29-1.86-15.63
			c-1.24-4.35-2.95-7.98-5.07-10.79c-2.14-2.83-4.77-4.94-7.79-6.27c-3.01-1.32-6.31-1.98-9.82-1.98c-3.51,0-6.94,0.76-10.2,2.27
			c-3.24,1.49-6.18,3.55-8.74,6.1c-2.56,2.55-4.61,5.49-6.1,8.74c-1.5,3.26-2.27,6.69-2.27,10.2c0,3.37,1.35,6.19,4,8.39
			c2.55,2.11,6.82,3.21,12.7,3.27l3.43,13.74c-0.32,0.13-0.67,0.22-1.04,0.3c-0.59,0.12-1.22,0.21-1.87,0.27
			c-0.63,0.06-1.26,0.09-1.88,0.09c-4.94,0-9.18-2-12.59-5.95c-3.44-3.97-5.18-10.12-5.18-18.27c0-4.31,0.85-8.4,2.52-12.17
			c1.68-3.77,3.98-7.15,6.86-10.02c2.87-2.87,6.24-5.18,10.02-6.86c3.77-1.67,7.86-2.52,12.17-2.52c5.65,0,10.93,0.98,15.68,2.9
			c4.75,1.92,8.89,4.57,12.31,7.87c3.42,3.3,6.12,7.25,8.05,11.76c1.92,4.5,2.89,9.4,2.89,14.57c0,4.93-1.04,10.08-3.08,15.32
			c-2.07,5.28-4.86,10.6-8.31,15.8c-3.47,5.23-7.44,10.41-11.82,15.39c-4.36,4.97-8.93,9.72-13.58,14.13
			c-4.65,4.4-9.22,8.51-13.59,12.21c-4.36,3.7-8.38,6.88-11.92,9.45c-0.22,0.16-0.31,0.44-0.23,0.7s0.32,0.43,0.59,0.43h51.46
			c4.06,0,7.62-2.88,8.46-6.86l2.24-10.62h1.63v28.19H56.83z"/>
		<path class="st3" d="M94.97,13.22c5.57,0,10.77,0.96,15.45,2.85c4.68,1.89,8.75,4.5,12.11,7.74c3.36,3.24,6.02,7.13,7.91,11.55
			c1.89,4.43,2.84,9.24,2.84,14.32c0,4.85-1.02,9.93-3.04,15.09c-2.05,5.24-4.83,10.51-8.25,15.68
			c-3.45,5.21-7.41,10.36-11.76,15.32c-4.35,4.96-8.91,9.7-13.54,14.09c-4.64,4.4-9.2,8.5-13.56,12.19
			c-4.35,3.69-8.35,6.86-11.89,9.42c-0.44,0.32-0.62,0.88-0.46,1.4c0.17,0.52,0.65,0.86,1.19,0.86h51.46c4.36,0,8.17-3.09,9.07-7.36
			l2.13-10.12h0.5v26.94H58.26c7.73-8.39,15.11-16.34,21.98-23.65c7.47-7.96,14.1-15.83,19.69-23.39
			c5.61-7.59,10.12-15.22,13.39-22.69c3.3-7.55,4.98-15.55,4.98-23.78c0-6.09-0.64-11.41-1.89-15.8c-1.26-4.42-3-8.12-5.17-10.99
			c-2.21-2.92-4.91-5.1-8.04-6.46c-3.09-1.35-6.48-2.04-10.07-2.04c-3.6,0-7.12,0.78-10.46,2.32c-3.31,1.52-6.31,3.62-8.92,6.23
			c-2.61,2.61-4.7,5.61-6.23,8.92c-1.54,3.34-2.32,6.86-2.32,10.46c0,3.57,1.42,6.55,4.22,8.87c2.62,2.18,6.76,3.3,12.61,3.41
			l3.18,12.71c-0.14,0.04-0.28,0.07-0.42,0.1c-0.56,0.11-1.17,0.2-1.8,0.26c-0.61,0.06-1.22,0.09-1.81,0.09
			c-4.82,0-8.78-1.87-12.12-5.73c-3.34-3.85-5.03-9.86-5.03-17.86c0-4.22,0.83-8.23,2.47-11.91c1.64-3.7,3.91-7.01,6.73-9.84
			c2.82-2.82,6.12-5.08,9.83-6.73C86.74,14.05,90.75,13.22,94.97,13.22 M94.97,11.97c-4.42,0-8.55,0.86-12.42,2.58
			c-3.86,1.72-7.27,4.05-10.21,6.99s-5.28,6.35-6.99,10.21c-1.72,3.86-2.58,8-2.58,12.42c0,8.34,1.78,14.57,5.34,18.68
			c3.56,4.11,7.91,6.16,13.06,6.16c0.61,0,1.26-0.03,1.93-0.09c0.67-0.06,1.32-0.15,1.93-0.28c0.61-0.12,1.16-0.3,1.66-0.55
			l-3.68-14.72c-6.01,0-10.28-1.04-12.79-3.13c-2.52-2.08-3.77-4.72-3.77-7.91c0-3.43,0.74-6.75,2.21-9.94
			c1.47-3.19,3.46-6.04,5.98-8.56c2.51-2.51,5.37-4.51,8.56-5.98c3.19-1.47,6.5-2.21,9.94-2.21c3.43,0,6.63,0.64,9.57,1.93
			s5.46,3.31,7.54,6.07c2.08,2.76,3.74,6.29,4.97,10.58c1.22,4.29,1.84,9.45,1.84,15.46c0,8.1-1.63,15.86-4.88,23.28
			c-3.25,7.42-7.67,14.9-13.25,22.45c-5.58,7.54-12.12,15.3-19.6,23.28c-7.48,7.97-15.46,16.56-23.92,25.76h80.96v-29.44h-2.76
			l-2.34,11.12c-0.78,3.71-4.05,6.36-7.84,6.36H71.97c3.56-2.58,7.54-5.73,11.96-9.48c4.42-3.74,8.95-7.82,13.62-12.24
			c4.66-4.42,9.2-9.14,13.62-14.17c4.42-5.03,8.37-10.18,11.87-15.46c3.5-5.27,6.29-10.58,8.37-15.92
			c2.08-5.34,3.13-10.52,3.13-15.55c0-5.27-0.98-10.21-2.94-14.81c-1.96-4.6-4.69-8.58-8.19-11.96c-3.5-3.37-7.67-6.04-12.51-8
			C106.04,12.95,100.73,11.97,94.97,11.97L94.97,11.97z"/>
	</g>
</g>
<line class="st0" x1="9.62" y1="105.85" x2="17.54" y2="120.17"/>
<path class="st0" d="M25.9,143.98c0,0,6.04,3.16,7.1,3.53s3.52,0.75,5.02,0.08c2.01-0.89,2.08-3.62,2.08-3.62H25.9z"/>
<path class="st0" d="M21.86,135.36c0,0-3.82-11.09-4.39-15.13c-1.3-9.24-0.89-15.88,0.1-20.5c0.6-2.78,1.09-9.74,1.09-9.74
	l1.78,1.61c0,0,4.73-7.37,8.56-12.21c2.19-2.78,8.58-11.77,9.75-15.43c1.17-3.66,2.4-7.47,2.41-10.97c0.02-3.5,0-6,0-6
	s2.35,7.17,2,10c-0.35,2.83-2.46,10.81-3.79,13.47c-1.33,2.66-6.3,9.66-9.21,13.53c-2.53,3.36-7.2,11.79-8,15
	c-1,4-1.54,9.51-1.43,14.01c0.14,5.63,2.08,12.39,2.08,12.39s-0.01,2.87-0.01,4.84C22.82,132.14,21.86,135.36,21.86,135.36z"/>
<path class="st0" d="M58.15,145.04c2.26-0.4,4.59-3.05,4.93-4.94c0.56-3.11-1.97-6.94-1.4-8.37c0.56-1.43,2.41-1.4,1.9-3.21
	c-0.42-1.49-2.53-2.49-4.37-2.86c-2.38-0.48-6.76,0.33-7.59-1.07c-0.56-0.95,1.56-2.27-0.23-3.94c-2.11-1.97-8.15,2.83-10.55,1.79
	c-1.18-0.51-0.45-3.41-2.75-3.47c-1.97-0.05-4.17,1.54-4.98,3.07c-0.67,1.26-1.46,3.23-2.82,3.82c-1.75,0.75-1.53-1.12-3.57-0.8
	c-2.01,0.32-2.48,5.79-2.73,6.54c-0.45,1.39-1.97,5.12-1.97,5.12s4.13-1.09,6.39-0.44c2.26,0.65,3.67,1.02,5.36,0.7
	c1.69-0.32,1.47-2.6,2.66-2.52c3.08,0.2,3.7,4.91,6.34,5.08c2.64,0.18,2.71-2.13,4.18-2.13c2.68,0,2.55,4.6,4.68,6.26
	C54.06,145.59,55.76,145.47,58.15,145.04z"/>
<path class="st1" d="M55.76,136.2c0,0-4.09-6.42-10.48-7.69c-3.36-0.67-9.33-0.7-13.74,1.49c-3.08,1.53-9.85,6.99-9.85,6.99"/>
<path class="st0" d="M51.66,116.34c2.52-0.6,4.3-4.72,4.2-7.05c-0.1-2.34-1.52-5.06-1.33-6.05s2.52-0.94,2.92-3.08
	c0.49-2.65-2.21-4.48-4.36-5.21s-4.63-1.38-4.77-2.22c-0.14-0.84,2.46-3.17,1.15-4.37c-1.3-1.2-3.57-1.51-5.95-1.43
	c-4.08,0.13-3.45,4.06-5.65,0.59c-0.54-0.85,0.15-2.25-1.17-2.78s-4.14,1.18-5.71,2.43c-3.66,2.91-6.66,7.14-6.66,7.14
	s3.32-2.08,6.06-0.67c2.17,1.12,0.28,5.28,2.57,7.34c1.33,1.29,2.05-2.41,3.51-1.78c1.87,0.81,0.71,5.35,1.81,7.41
	c1.1,2.05,3.13,0.27,3.95,0.49c1.79,0.48,2.11,3.03,2.55,5.21C45.21,114.49,49.14,116.94,51.66,116.34z"/>
<path class="st0" d="M50.85,1.23c2.63,0.17,6.21,3.06,6.63,5.93c0.41,2.87,0.03,4.24,0.83,5.38c0.8,1.13,2.01-0.08,3.27,1.69
	s0.63,4.21-1.05,5.69c-1.68,1.48-5.67,4.44-5.76,5.76c-0.11,1.74,1.11,0.81,2.06,2.46s-0.99,3.33-2.65,4.3
	c-1.65,0.97-5.22,2.22-4.98,3.4c0.24,1.18,1.49,0.6,1.68,2.66c0.19,2.05-2.1,3.26-3.32,4.04c-1.22,0.78-6.72,5.56-6.72,5.56
	s-0.13-5.48-0.4-6.46c-0.27-0.97-1.68-4.46-2.27-5.24s-1.73-3.03-0.35-4.23c1.44-1.24,2.32,0.71,3.13-0.4
	c0.81-1.11-1.22-3.3-2.02-4.86c-0.8-1.56-1.49-3.58,0.43-4.94c0.78-0.55,2.11,1.01,3.2-0.34c1.09-1.36-0.35-4.46-1.21-5.89
	c-0.86-1.43-1.44-3.19-0.38-4.11c1.16-1,2.38,0.52,3.4-0.24c1.03-0.75,1.07-3.52,1.73-5.59S48.22,1.06,50.85,1.23z"/>
<path class="st0" d="M21.45,65.14c0,0,0.51-1.29,0.28-2.46c-0.25-1.21-0.14-2.41,0.13-3.6c0.4-1.78,2.94-4.62,2.94-4.62
	s-0.65-0.59-0.34-1.2c0.32-0.61,4.67-2.49,7.92,0.9c3.14,3.28,2.17,6.78,1.46,7.53c-0.7,0.75-1.8,0.06-1.8,0.06s-2.84,3.26-4,3.66
	c-1.16,0.41-3-0.02-4.21-0.46C22.76,64.56,21.45,65.14,21.45,65.14z"/>
<path class="st1" d="M32.04,61.75c0,0-0.84-3.05-2.52-4.73c-1.68-1.69-4.72-2.55-4.72-2.55"/>
<path class="st0" d="M36.82,73.57c0,0-0.42-1.13-0.87-1.82c-0.72-1.09-1.82-1.27-2.64-2.62c-0.87-1.43-0.34-6.7-0.34-6.7
	s-0.6-0.18-0.72-0.85s1.96-4.68,6.57-3.93c4.46,0.73,5.56,4.07,5.44,5.09s-1.17,1.16-1.17,1.16s0,3.73-0.86,5.54
	c-0.53,1.1-2.69,2.27-3.65,2.63C37.65,72.41,36.82,73.57,36.82,73.57z"/>
<path class="st1" d="M43.11,63.88c0,0-2.5-1.91-4.85-2.25c-2.35-0.33-5.28,0.8-5.28,0.8"/>
<path class="st0" d="M40.85,48.08c0,0,4.81-14.14,6.51-18.31c2.13-5.25,3.67-15.69,3.67-15.69"/>
<path class="st0" d="M10.27,56.45c-2.29-1.14-2.4-5.22-1.63-7.35c0.56-1.54,1.55-3.4,0.88-4.07c-0.67-0.67-1.5,0.1-1.65-2.1
	c-0.09-1.37,2.06-2.33,3.06-2.67c1-0.33,4.33-0.83,5.33-1.33s-0.76-1.75-0.37-3.26c0.5-1.93,3.24-1.59,5.04-0.57
	c1.18,0.67,2.5,1.25,3.67,1.25c1.17,0,0.92-1.92,2.75-2.07c1.67-0.14,1.87,0.79,3.62,2.24c0.56,0.46,1.85,1.66,2.88,2.58
	c0.49,0.43,1.09-1.48,2.74-0.33c2.22,1.54,5.73,12.52,5.73,12.52s-4.13-3.3-6.85-3.93c-2.25-0.52-2.82,1.31-4.72,1.31
	c-1.9,0-0.62-2.08-2.89-2.12c-1.5-0.03-2.76,4.71-5.09,5.38c-2.33,0.67-1.67-2.5-2.83-2.33s-1.71,3.93-3.33,5.38
	C14.51,56.84,12.57,57.59,10.27,56.45z"/>
<path class="st1" d="M41.71,49.93c0,0-4.94-5.52-8.49-7.21c-2.97-1.42-6.07-2.37-9.07-1.63c-3.71,0.92-7.54,4.59-7.54,4.59"/>
<path class="st1" d="M33.17,53.98c0,0,0.66-2.85,3.28-3.92c2.88-1.17,4.72-0.08,4.72-0.08"/>
<path class="st1" d="M19.4,90.95c0,0,0.67-4.12,0.25-6.73c-0.25-1.54-0.75-2.85-2.3-2.96c-1.58-0.11-3.58,2.09-4.45,0.84
	c-1.38-2,1.77-3.96,0.42-5.6c-1.58-1.92-3.05,0.97-3.05,0.97"/>
<path class="st1" d="M48.3,105.16c0.01-0.25-1.48-6.37-5.01-10.06c-3.44-3.59-14.15-5.08-18.97-0.78"/>
<path class="st0" d="M105.13,12.05c3.25-1.75,6.24-0.84,8.66,0.71c2.58,1.65,4.38,6.22,4.38,6.22s-2.62-1.53-4-2
	c-0.03-0.51-1.04-2.03-2.45-2.99C109.14,12.06,105.13,12.05,105.13,12.05z"/>
<path class="st1" d="M111.91,85.83c0,0-0.56-2.48-0.26-5c0.3-2.52,1.51-7.07,1.51-7.07s-2.8,4.51-4.13,6.57s-3.42,8.03-3.42,8.03"/>
<path class="st0" d="M76.08,1.97c1.26-1.06,3.27,0.57,4.44,0.56c1.18-0.01,1.87-1.99,3.68-1.87c1.81,0.12,2.8,1.07,3.73,2.8
	c0.89,1.66,2.1,2.05,2.93,1.91c0.52-0.09,0.72-1.75,2.15-1.41c1.14,0.28,2.03,3.12,3.24,3.75c0.94,0.49,1.37-1.05,3.04-0.59
	c1.32,0.36,3.61,5.25,5.88,4.87c0,0-2.44,1.43-5.02,3.02c-2.59,1.59-5.39,3.1-6.49,2.21c-1.09-0.89-1.49-1.42-1.49-1.42
	s-5.84,2.13-6.82,1.03s-0.34-2.38-0.34-2.38s-7.04,0.86-8.15-0.98s0.75-2.68,0.18-3.51c-0.57-0.83-1.83-1.97-2.44-3.77
	S74.82,3.03,76.08,1.97z"/>
<path class="st0" d="M79.03,44.73c-0.88-1.93-0.51-6.04-1.13-6.62c-0.62-0.58-2.62-0.75-3.21-2.65c-0.59-1.9,0.8-3.76,2.57-4.84
	c1.77-1.09,3-1.63,3.47-2.78c0.29-0.71-2.6-1.01-2.07-3.42c0.74-3.38,5.92-1.6,6.85-3.93c0.34-0.85-1.97-0.7-0.27-2.85
	c1.39-1.75,3.96-1.18,6.32-1.63c1.27-0.24,0.16-1.8,1.95-2.62c1.17-0.54,3.14-0.13,5.3-0.31c2.13-0.17,4.68-0.2,6.86-1.15
	c-3.08,1.34-4.01,4.71-4.19,6.46c-0.18,1.75,0.11,4.04-0.88,4.72c-1.68,1.16-2.26-0.59-3.34,0.84s1.24,4.56,0.6,6.51
	c-0.91,1.78-3.53,0.1-3.53,0.1s1.33,3.59,1.47,5.68c0.12,1.75-0.08,3.65-1.77,3.95c-0.97,0.17-2.54-1.61-3.09-1.04
	c-0.55,0.57-1.57,3.59-2.95,5.16C85.51,47.16,80.71,48.31,79.03,44.73z"/>
<path class="st0" d="M109.13,78.26c0,0-0.05-1.5-1.55-3.61c-1.5-2.11-5.49-4.84-5.57-7.44c-0.07-2.15,2.08-1.76,1.6-3.11
	c-0.48-1.35-0.98-2.2-2.01-3.54c-1.02-1.33-2.8-2.42-1.22-4.65c0.84-1.19,2.26-1.2,2.34-2.11c0.08-0.91-1.48-4.13-1.92-6.23
	c-0.37-1.81,0.39-4.28,2.22-4.66c1.96-0.4,3.08-0.35,3.08-0.35s2.93-3.62,4.4-4.55c2.83-1.79,7.13-1.17,8.57,0.18
	s1.07,3.08,0.48,4.12c-0.59,1.04-2.24,2.96-2.11,3.73c0.16,1.01,2.63-0.6,3.72,2.22c1.01,2.6-3.73,4.87-3.52,6.14
	c0.21,1.27,0.97,0.56,1.31,2.71c0.34,2.15-5.18,5.11-5.37,7.75c-0.09,1.19,1.51,0.7,1.63,2.13c0.12,1.43-0.61,2.31-2.43,5.02
	C111.61,73.78,109.13,78.26,109.13,78.26z"/>
<path class="st0" d="M87.73,102.83c-2.37,1.93-5.94,0.79-7.04-1.49c-1.09-2.29,0.23-5.29-0.3-5.92c-0.53-0.63-3.02,0.2-3.45-1.59
	c-0.7-2.94,5.65-4.87,5.09-6.53c-0.57-1.66-2.24-2.13-1.7-3.59c0.53-1.46,3.27-1.81,4.74-1.8c1.48,0.01,3.16,0.13,3.56-0.59
	c0.4-0.72-0.17-1.77,0.14-2.82s1.88-1.46,3.42-1.21s4.42,0.97,5.37,0.95c0.95-0.01,0.85-0.92,1.75-2.04s2.46,0.19,4.66,0.6
	c2.2,0.41,6.35,1.11,6.35,1.11s-1.37,1.85-2.56,3.61c-1.13,1.66-1.32,4.02-3.1,3.92c-1.17-0.07-1.3-0.45-2.05-0.39
	c-0.69,0.06-1.02,4.58-2.31,5.56c-2.1,1.61-2.58-1.84-3.54,0.18c-0.75,1.6,0.04,5.25-1.92,6.25c-2.25,1.14-2.27-1.07-3.43-0.3
	C90.26,97.51,89.56,101.34,87.73,102.83z"/>
<path class="st0" d="M128.18,109.71c0.67,1.81,0.31,3.17-0.52,3.98c-1.35,1.32-3.68,2.57-3.73,3.2c-0.09,1.3,1.05,1.09,1.53,2.52
	c0.47,1.43-0.73,2.64-2.27,3.1c-1.54,0.46-3.39,0.5-3.65,1.03c-0.27,0.53,0.49,0.84,0.38,2.1c-0.13,1.53-3.26,2.29-4.43,2.82
	c-1.57,0.71-0.03,2.14-0.9,3.18c-1.05,1.27-1.69,1.72-2.54,2.99c-0.92,1.37-1.84,3.85-1.84,3.85s-2.23-5.17-2.92-7.07
	c-0.69-1.9-1.75-6.75-1.42-8.28c0.33-1.53,2.7-0.7,2.7-1.56c0.01-0.86-1.95-5.16,0.16-6.78c1.25-0.96,2.29,0.44,2.85-0.69
	s0.14-2.89,0.97-5.18c0.78-2.14,2.5-2.08,3.3-1.55c0.8,0.53,0.95,0.89,1.87,0.91c0.92,0.02,3.03-2.12,5.56-2.25
	C124.94,105.94,127.18,107,128.18,109.71z"/>
<path class="st0" d="M69.46,139.74c-1.99-1.81-1.75-3.88-1.2-5.98c0.55-2.1,2.44-4.83,2.99-5.74c0.54-0.9-1.75-1.5-1.54-3.59
	s1.77-3.19,3.79-3.43c1.57-0.18,4.66,0.44,5.54-0.04c0.88-0.49-0.48-2.33,1.89-3.77c2.37-1.44,4.78,0.38,5.94,1.32
	s3.21,2.85,3.63,2.09s1.3-1.63,2.85-1.69s2.73,1.14,3.52,2.6c0.79,1.46,2.07,3.36,3.03,3.66c0.96,0.3,2.05-1.35,3.59-0.94
	c1.54,0.41,3.06,4.39,3.93,6.2c0.88,1.82,2.96,9.22,2.96,9.22s-3.08-2.5-5.06-2.43c-1.98,0.07-4.33,1.43-5.26-0.57
	c-0.43-0.92,1.47-2.32-0.02-2.14s-5.04,2.72-6.69,2.44c-1.64-0.28-1.07-4-1.07-4s-3.04,1.29-4.75,3.3
	c-0.92,1.08-2.69,4.01-4.49,3.69c-1.81-0.32-1.42-3.22-1.91-4.1s-2,0.15-2.6,0.96c-0.61,0.8-2.45,2.57-3.55,3.2
	C73.32,140.95,71.44,141.55,69.46,139.74z"/>
<path class="st0" d="M142.31,64.33c0.59,1.45-0.53,4.4-2.41,5.56c-1.38,0.85-3.64,0.89-3.9,1.56c-0.25,0.67,0.39,1.79-0.24,3.15
	c-0.62,1.36-2.27,1.5-3.92,1.09c-1.65-0.4-2.48-1.12-3.03-0.8c-0.89,0.52,0.18,1.46-0.82,2.72c-0.66,0.83-3.18,0.41-4.62-0.59
	c-1.44-1-1.88-1.5-2.4-1.51c-0.52-0.01-0.8,1.57-1.42,2.09c-1.1,0.94-3.15-0.11-5.19-0.45s-4.54-0.22-4.54-0.22s2.73-2.42,3.58-4.13
	c0.84-1.69,1.57-4.29,2.72-4.8c1.08-0.48,2.6,1.08,2.6,1.08c0.64-1.09,2.45-6.27,4.12-6.42c2.79-0.26,1.79,2.03,3.03,1.51
	c1.24-0.52,2.29-3.06,3.14-4.05c1.35-1.57,3.52-1.87,4.22-0.29c0.35,0.8,0.19,2.22,1.29,1.99c1.1-0.24,2.04-0.53,3.7-0.66
	C141.32,60.98,142.31,64.33,142.31,64.33z"/>
<path class="st0" d="M115.05,100.75c0,0,0.39-1.29,1.01-2.01c0.62-0.72,1.97-1.34,2.27-2.78c0.3-1.44-0.4-4.37-0.38-5.82
	c0,0,0.97-1.04-0.14-2.49c-0.85-1.12-3.32-2.57-5.69-2.41c-1.86,0.13-3.79,0.75-4.51,1.91c-0.71,1.17-1.81,3.14-0.95,3.96
	s1.42,0.8,1.44,1.18c0.02,0.38,0.48,4.89,1.75,6c1.27,1.11,2.32,1.05,3.31,1.26C114.16,99.75,115.05,100.75,115.05,100.75z"/>
<path class="st0" d="M102.25,101.42c-0.67-1.93-3.79-2.73-3.76-5.42c0.03-2.69,0.65-5.72,0.65-5.72s-1.28-0.22-0.81-1.81
	c0.29-0.97,2.52-3.95,6.59-3.12c4.08,0.83,5.56,3.89,5.47,4.79c-0.2,1.95-1.1,1.79-1.1,1.79s-1.23,5.09-2.05,6.57
	C106.42,100,103.13,100.34,102.25,101.42z"/>
<path class="st0" d="M99.14,90.29c0,0,2.59-1.85,5.62-1.23c2.08,0.42,4.53,2.89,4.53,2.89"/>
<path class="st0" d="M111.21,89.51c0,0,0.91-0.43,2.42-0.28c2.07,0.21,3.88,1.02,3.88,1.02"/>
<path class="st1" d="M109.07,79.26c-4.15,0.61-8.56,3.12-10.47,3.67c-1.9,0.55-5.28,2.74-7.57,4.81c-2.29,2.06-3.48,4.96-3.63,6.16"
	/>
<path class="st1" d="M110.59,47.3c0,0-2.33,7.54-2.17,14.17c0.07,2.92,1.31,9.42,1.12,15.98"/>
<path class="st1" d="M84.11,36.67c0,0,0.72-3.8,2.55-7.35c1.83-3.55,6.72-9.05,8.1-10.08c1.38-1.03,9.41-6.25,9.41-6.25"/>
<path class="st1" d="M83,8.56c0,0,3.19,1.95,7,2.48c6.71,0.89,15.17,0.94,15.17,0.94"/>
<path class="st1" d="M110.9,76.41c0,0,7.72-3.47,9.4-4.48c2.57-1.54,11.04-4.36,13.13-4.79"/>
<path class="st1" d="M120.52,113.69c0,0-3.37,1.92-5.14,4.49c-1.77,2.57-4.02,6-4.82,11.2c-0.21,1.33-0.1,8.12-0.1,8.12"/>
<path class="st1" d="M76.49,130.92c1.79-1.15,6.83-4.18,10.78-4.7c4.33-0.57,9.46,0.83,11.54,2.23c2.08,1.4,7.7,5.3,9.03,6.62
	c1.33,1.32,2.53,4.6,2.53,4.6"/>
<path class="st1" d="M111.17,139.98c-2-1-5.39-1.64-7.91-0.76c-1.36,0.48-2.77,1.42-2.95,2.85c-0.11,0.9,0.3,1.85-0.02,2.7
	c-0.48,1.27-2.18,1.48-3.53,1.34c-1.35-0.13-2.95-0.31-3.85,0.7c-0.4,0.45-0.57,1.05-0.74,1.63c-0.1,0.36-0.2,0.74-0.12,1.1
	c0.14,0.6,0.72,0.96,1.15,1.39c0.43,0.43,0.73,1.2,0.28,1.61"/>
<path class="st0" d="M126.17,148.98c2.22-0.74,3.44-3.03,3.3-4.79c-0.11-1.32-0.86-2.26-2.3-3.21c-1.55-1.03-3.43-1.13-5.44-0.13
	c-1.99,0.99-3.92,0.23-5.56-0.87c-3-2-7-4-7-4l1,3c0,0,5.42,5.91,7,7C119.59,147.65,123.17,149.98,126.17,148.98z"/>
<path class="st1" d="M123.34,146.51c0,0-0.66-1.8-0.24-3.35c0.33-1.24,1.24-1.73,3.07-2.17"/>
</svg>
