<?xml version="1.0" encoding="utf-8"?>
<!-- Generator: Adobe Illustrator 24.2.1, SVG Export Plug-In . SVG Version: 6.00 Build 0)  -->
<svg version="1.1" id="Layer_9" xmlns="http://www.w3.org/2000/svg" xmlns:xlink="http://www.w3.org/1999/xlink" x="0px" y="0px"
	 viewBox="0 0 25.11 29.06" style="enable-background:new 0 0 25.11 29.06;" xml:space="preserve">
<style type="text/css">
	.st0{fill:none;stroke:#000000;stroke-width:1.25;stroke-linecap:round;stroke-miterlimit:10;}
</style>
<g id="Layer_4">
	<path class="st0" d="M0.63,13.14c0-2.03,1.14-7.69,6.42-7.81c3.29-0.08,7.03-0.08,10.58-0.08c5.32,0,6.86,5.89,6.86,7.89
		C16.47,13.19,8.64,13.1,0.63,13.14z"/>
	<path class="st0" d="M2.63,13.16c0,3.15,0.26,6.25,1.13,8.19c1.61,3.59,3.33,5.23,6.75,5.73c0.74,0.11,1.21,1.36,1.9,1.36
		c0.73,0,1.17-1.32,1.83-1.32c3.3,0,5.92-3.56,6.92-5.9c0.9-2.13,1.23-5.12,1.23-8.06"/>
	<path class="st0" d="M8.08,0.65c3.33-0.26,4.84,1.71,4.84,4.61"/>
	<line class="st0" x1="1.21" y1="13.14" x2="8.77" y2="5.29"/>
	<line class="st0" x1="6.17" y1="13.13" x2="13.65" y2="5.44"/>
	<line class="st0" x1="11.3" y1="13.01" x2="18.77" y2="5.44"/>
	<line class="st0" x1="17.04" y1="13.01" x2="22.26" y2="7.52"/>
	<line class="st0" x1="2.86" y1="7.14" x2="8.52" y2="13.01"/>
	<line class="st0" x1="6.3" y1="5.56" x2="13.54" y2="13.01"/>
	<line class="st0" x1="11.19" y1="5.44" x2="18.66" y2="13.01"/>
	<line class="st0" x1="16.48" y1="5.44" x2="23.81" y2="13.01"/>
</g>
</svg>
