<?xml version="1.0" encoding="UTF-8" standalone="no"?>
<svg
   xmlns:dc="http://purl.org/dc/elements/1.1/"
   xmlns:cc="http://creativecommons.org/ns#"
   xmlns:rdf="http://www.w3.org/1999/02/22-rdf-syntax-ns#"
   xmlns:svg="http://www.w3.org/2000/svg"
   xmlns="http://www.w3.org/2000/svg"
   viewBox="0 0 114.55293 211.27733"
   height="211.27733"
   width="114.55293"
   xml:space="preserve"
   id="svg2"
   version="1.1"><metadata
     id="metadata8"><rdf:RDF><cc:Work
         rdf:about=""><dc:format>image/svg+xml</dc:format><dc:type
           rdf:resource="http://purl.org/dc/dcmitype/StillImage" /></cc:Work></rdf:RDF></metadata><defs
     id="defs6"><clipPath
       id="clipPath18"
       clipPathUnits="userSpaceOnUse"><path
         id="path16"
         d="M 0,158.458 H 85.915 V 0 H 0 Z" /></clipPath><clipPath
       id="clipPath38"
       clipPathUnits="userSpaceOnUse"><path
         id="path36"
         d="M 0,158.458 H 85.915 V 0 H 0 Z" /></clipPath><clipPath
       id="clipPath50"
       clipPathUnits="userSpaceOnUse"><path
         id="path48"
         d="M 0,158.458 H 85.915 V 0 H 0 Z" /></clipPath></defs><g
     transform="matrix(1.3333333,0,0,-1.3333333,0,211.27733)"
     id="g10"><g
       id="g12"><g
         clip-path="url(#clipPath18)"
         id="g14"><g
           transform="translate(21.0228,155.292)"
           id="g20"><path
             id="path22"
             style="fill:#ffffff;fill-opacity:1;fill-rule:nonzero;stroke:none"
             d="m 0,0 c -1.1,-2.1 -0.09,-3.86 -1.501,-4.667 -1.412,-0.806 -3.654,0.263 -3.537,-1.769 0.109,-1.91 2.283,-4.017 2.205,-5.981 -0.084,-2.083 -2.793,-1.091 -2.667,-3.166 0.253,-4.172 -1.718,-6.885 -1.718,-6.885 0,0 3.32,0.859 6.051,1.304 2.029,0.33 3.86,0.854 4.25,2.247 0.384,1.373 -0.482,0.4 -0.184,1.811 0.209,0.987 4.165,1.826 6.036,3.134 1.845,1.29 0.881,1.784 0,2.514 -0.932,0.771 4.962,3.583 2.648,5.625 -1.325,1.169 -1.438,0.068 -2.648,0.875 -1.21,0.806 0.648,6 -3.602,7.274 C 2.397,3.196 0.685,1.308 0,0" /></g><g
           transform="translate(21.0228,155.292)"
           id="g24"><path
             id="path26"
             style="fill:none;stroke:#424242;stroke-width:1.25;stroke-linecap:round;stroke-linejoin:round;stroke-miterlimit:10;stroke-dasharray:none;stroke-opacity:1"
             d="m 0,0 c -1.1,-2.1 -0.09,-3.86 -1.501,-4.667 -1.412,-0.806 -3.654,0.263 -3.537,-1.769 0.109,-1.91 2.283,-4.017 2.205,-5.981 -0.084,-2.083 -2.793,-1.091 -2.667,-3.166 0.253,-4.172 -1.718,-6.885 -1.718,-6.885 0,0 3.32,0.859 6.051,1.304 2.029,0.33 3.86,0.854 4.25,2.247 0.384,1.373 -0.482,0.4 -0.184,1.811 0.209,0.987 4.165,1.826 6.036,3.134 1.845,1.29 0.881,1.784 0,2.514 -0.932,0.771 4.962,3.583 2.648,5.625 -1.325,1.169 -1.438,0.068 -2.648,0.875 -1.21,0.806 0.648,6 -3.602,7.274 C 2.397,3.196 0.685,1.308 0,0 Z" /></g><g
           transform="translate(16.3967,133.4432)"
           id="g28"><path
             id="path30"
             style="fill:#ffffff;fill-opacity:1;fill-rule:nonzero;stroke:#424242;stroke-width:1.25;stroke-linecap:round;stroke-linejoin:round;stroke-miterlimit:10;stroke-dasharray:none;stroke-opacity:1"
             d="m 0,0 c 0,0 3.938,3.225 5.584,5.89 1.826,2.957 3.125,6.324 3.125,8.542" /></g></g></g><g
       id="g32"><g
         clip-path="url(#clipPath38)"
         id="g34"><g
           transform="translate(31.9298,84.4479)"
           id="g40"><path
             id="path42"
             style="fill:#424242;fill-opacity:1;fill-rule:nonzero;stroke:none"
             d="m 0,0 v -75.44 h 6.44 c 4.169,0 8.033,0.796 11.592,2.392 3.556,1.592 6.652,3.985 9.293,7.176 2.634,3.188 4.72,7.113 6.256,11.775 1.531,4.661 2.298,10.121 2.298,16.377 0,6.256 -0.767,11.713 -2.298,16.376 -1.536,4.66 -3.622,8.585 -6.256,11.776 -2.641,3.188 -5.737,5.58 -9.293,7.176 C 14.473,-0.799 10.609,0 6.44,0 Z m 0,3.68 h 6.44 c 5.52,0.121 9.965,1.932 13.34,5.428 3.373,3.496 5.06,8.74 5.06,15.732 0,6.992 -1.687,12.264 -5.06,15.824 C 16.405,44.22 11.96,46 6.44,46 H 0 Z m -26.68,-82.8 v 1.84 l 3.038,0.759 c 0,0 4.477,1.355 6.235,3.448 1.75,2.084 1.767,7.251 1.767,7.251 V 35.136 c 0,0 -0.309,5.562 -2.371,8.25 -2.238,2.915 -5.961,3.777 -5.961,3.777 l -2.708,0.677 v 1.84 H 6.44 c 5.764,0 10.764,-0.644 14.996,-1.932 4.232,-1.288 7.756,-3.068 10.58,-5.336 2.82,-2.271 4.936,-4.908 6.348,-7.912 1.408,-3.007 2.117,-6.228 2.117,-9.66 0,-2.7 -0.4,-5.092 -1.197,-7.176 -0.799,-2.087 -1.84,-3.896 -3.127,-5.428 C 34.868,10.701 33.397,9.352 31.741,8.188 30.084,7.021 28.397,6.072 26.68,5.336 22.631,3.496 18.032,2.329 12.879,1.84 20.485,1.104 27.233,-0.799 33.12,-3.864 c 2.576,-1.351 5.06,-2.976 7.453,-4.876 2.39,-1.904 4.535,-4.232 6.439,-6.992 1.901,-2.76 3.432,-5.952 4.6,-9.568 1.164,-3.62 1.748,-7.76 1.748,-12.42 0,-5.767 -1.104,-11.164 -3.313,-16.192 -2.207,-5.031 -5.367,-9.415 -9.474,-13.156 -4.112,-3.744 -9.049,-6.687 -14.813,-8.831 -5.767,-2.149 -12.207,-3.221 -19.32,-3.221 z" /></g></g></g><g
       id="g44"><g
         clip-path="url(#clipPath50)"
         id="g46"><g
           transform="translate(12.641,129.8446)"
           id="g52"><path
             id="path54"
             style="fill:#ffffff;fill-opacity:1;fill-rule:nonzero;stroke:none"
             d="m 0,0 c 0,0 -1.005,-3.077 -0.702,-5.053 0.215,-1.4 0.61,-3.521 0.834,-5.257 0.115,-0.891 0,0 -0.974,-0.35 1.383,-2.625 4.853,-5.987 6.41,-7.539 2.107,-2.102 6.372,-8.091 8.064,-10.187 2.061,-2.554 5.572,-9.25 5.434,-13.745 -0.202,0 2.57,-0.361 3.485,-0.264 0,1.544 -1.262,6.362 -1.669,7.176 -1.74,4.23 -3.068,7.208 -4.583,9.221 -1.334,1.772 -0.814,3.693 -0.442,6.074 -1.204,-0.087 -2.142,-1.258 -2.454,-2.649 -2.567,3.812 -6.604,8.52 -8.063,10.312 -1.459,1.792 -2.795,4.367 -3.038,6.545 -0.233,2.082 0.226,2.643 -0.462,3.83 C 1.153,-0.698 0,0 0,0" /></g><g
           transform="translate(12.641,129.8446)"
           id="g56"><path
             id="path58"
             style="fill:none;stroke:#424242;stroke-width:1.25;stroke-linecap:round;stroke-linejoin:round;stroke-miterlimit:10;stroke-dasharray:none;stroke-opacity:1"
             d="m 0,0 c 0,0 -1.005,-3.077 -0.702,-5.053 0.215,-1.4 0.61,-3.521 0.834,-5.257 0.115,-0.891 0,0 -0.974,-0.35 1.383,-2.625 4.853,-5.987 6.41,-7.539 2.107,-2.102 6.372,-8.091 8.064,-10.187 2.061,-2.554 5.572,-9.25 5.434,-13.745 -0.202,0 2.57,-0.361 3.485,-0.264 0,1.544 -1.262,6.362 -1.669,7.176 -1.74,4.23 -3.068,7.208 -4.583,9.221 -1.334,1.772 -0.814,3.693 -0.442,6.074 -1.204,-0.087 -2.142,-1.258 -2.454,-2.649 -2.567,3.812 -6.604,8.52 -8.063,10.312 -1.459,1.792 -2.795,4.367 -3.038,6.545 -0.233,2.082 0.226,2.643 -0.462,3.83 C 1.153,-0.698 0,0 0,0 Z" /></g><g
           transform="translate(5.4246,6.0961)"
           id="g60"><path
             id="path62"
             style="fill:#ffffff;fill-opacity:1;fill-rule:nonzero;stroke:none"
             d="m 0,0 c 0,0 -2.485,0.572 -3.664,2.021 -1.089,1.337 -1.404,3.354 -0.904,5.004 0.375,1.24 1.336,2.817 2.666,3.338 1.438,0.562 2.805,1.05 4.792,1.416 2.036,0.375 2.942,0.439 4.542,0.417 1.908,-0.026 3.992,0.244 3.992,0.244 0,0 0.008,-0.66 -0.149,-1.962 -0.187,-1.563 -0.736,-3.467 -0.736,-3.467 0,0 -3.385,0.694 -5.846,-0.679 C 1.762,4.696 0,0 0,0" /></g><g
           transform="translate(5.4246,6.0961)"
           id="g64"><path
             id="path66"
             style="fill:none;stroke:#424242;stroke-width:1.25;stroke-linecap:round;stroke-linejoin:round;stroke-miterlimit:10;stroke-dasharray:none;stroke-opacity:1"
             d="m 0,0 c 0,0 -2.485,0.572 -3.664,2.021 -1.089,1.337 -1.404,3.354 -0.904,5.004 0.375,1.24 1.336,2.817 2.666,3.338 1.438,0.562 2.805,1.05 4.792,1.416 2.036,0.375 2.942,0.439 4.542,0.417 1.908,-0.026 3.992,0.244 3.992,0.244 0,0 0.008,-0.66 -0.149,-1.962 -0.187,-1.563 -0.736,-3.467 -0.736,-3.467 0,0 -3.385,0.694 -5.846,-0.679 C 1.762,4.696 0,0 0,0 Z" /></g><g
           transform="translate(31.2423,18.5358)"
           id="g68"><path
             id="path70"
             style="fill:#ffffff;fill-opacity:1;fill-rule:nonzero;stroke:none"
             d="m 0,0 c 0,0 3.937,2.101 5.401,10.173 0.638,3.516 0.298,12.099 -0.787,17.625 -1.125,5.727 -2.342,12 -2.669,18.125 -0.231,4.33 -2.732,20.637 -2.732,20.637 h 6.026 c 0,0 -0.184,-17.504 1.678,-22.887 1.964,-5.677 0.459,-9.063 1.008,-14.102 0.369,-3.374 0.194,-6.864 1.285,-8.898 0.579,-1.08 2.502,-0.513 2.373,-1.08 -0.442,-1.938 -1.095,-2.875 -1.508,-4.42 C 9.168,11.783 8.438,8.417 8.145,7.064 7.317,3.248 5.663,-2.19 0,-5.415 Z" /></g><g
           transform="translate(31.2423,18.5358)"
           id="g72"><path
             id="path74"
             style="fill:none;stroke:#424242;stroke-width:1.25;stroke-linecap:round;stroke-linejoin:round;stroke-miterlimit:10;stroke-dasharray:none;stroke-opacity:1"
             d="m 0,0 c 0,0 3.937,2.101 5.401,10.173 0.638,3.516 0.298,12.099 -0.787,17.625 -1.125,5.727 -2.342,12 -2.669,18.125 -0.231,4.33 -2.732,20.637 -2.732,20.637 h 6.026 c 0,0 -0.184,-17.504 1.678,-22.887 1.964,-5.677 0.459,-9.063 1.008,-14.102 0.369,-3.374 0.194,-6.864 1.285,-8.898 0.579,-1.08 2.502,-0.513 2.373,-1.08 -0.442,-1.938 -1.095,-2.875 -1.508,-4.42 C 9.168,11.783 8.438,8.417 8.145,7.064 7.317,3.248 5.663,-2.19 0,-5.415 Z" /></g><g
           transform="translate(5.2497,6.6684)"
           id="g76"><path
             id="path78"
             style="fill:none;stroke:#424242;stroke-width:1.25;stroke-linecap:round;stroke-linejoin:round;stroke-miterlimit:10;stroke-dasharray:none;stroke-opacity:1"
             d="M 0,0 C 0,0 0.512,3.145 0.118,4.708 -0.275,6.27 -0.394,7.018 -2.07,7.696" /></g><g
           transform="translate(58.5436,81.9628)"
           id="g80"><path
             id="path82"
             style="fill:#ffffff;fill-opacity:1;fill-rule:nonzero;stroke:none"
             d="m 0,0 c 2.46,-0.398 4.611,-3.863 4.812,-5.879 0.202,-2.016 -0.998,-3.744 -0.625,-5 0.374,-1.256 1.68,-0.427 2.617,-1.875 0.741,-1.144 -0.679,-3.125 -2.117,-3.875 -1.416,-0.739 -2.627,-1.219 -3.425,-2.227 -0.799,-1.008 2.079,-1.39 0.675,-2.398 -1.403,-1.008 -3.71,-1.539 -5.524,-1.942 -1.815,-0.404 -0.342,-1.99 -1.058,-2.621 -0.717,-0.63 -3.872,0.834 -6.543,1.329 -2.94,0.545 -6.641,-0.943 -6.641,-0.943 0,0 1.164,5.556 1.164,7.169 0,1.613 0.83,5.673 2.04,6.883 1.21,1.21 2.573,-1.625 3.437,-0.25 1.137,1.807 0.152,4.927 2.25,6.431 2.028,1.453 2.88,-2.387 4.04,-1.181 1.404,1.46 1.334,2.13 1.567,3.756 C -3.178,-1.562 -3.094,0.501 0,0" /></g><g
           transform="translate(58.5436,81.9628)"
           id="g84"><path
             id="path86"
             style="fill:none;stroke:#424242;stroke-width:1.25;stroke-linecap:round;stroke-linejoin:round;stroke-miterlimit:10;stroke-dasharray:none;stroke-opacity:1"
             d="m 0,0 c 2.46,-0.398 4.611,-3.863 4.812,-5.879 0.202,-2.016 -0.998,-3.744 -0.625,-5 0.374,-1.256 1.68,-0.427 2.617,-1.875 0.741,-1.144 -0.679,-3.125 -2.117,-3.875 -1.416,-0.739 -2.627,-1.219 -3.425,-2.227 -0.799,-1.008 2.079,-1.39 0.675,-2.398 -1.403,-1.008 -3.71,-1.539 -5.524,-1.942 -1.815,-0.404 -0.342,-1.99 -1.058,-2.621 -0.717,-0.63 -3.872,0.834 -6.543,1.329 -2.94,0.545 -6.641,-0.943 -6.641,-0.943 0,0 1.164,5.556 1.164,7.169 0,1.613 0.83,5.673 2.04,6.883 1.21,1.21 2.573,-1.625 3.437,-0.25 1.137,1.807 0.152,4.927 2.25,6.431 2.028,1.453 2.88,-2.387 4.04,-1.181 1.404,1.46 1.334,2.13 1.567,3.756 C -3.178,-1.562 -3.094,0.501 0,0 Z" /></g><g
           transform="translate(44.3722,58.0837)"
           id="g88"><path
             id="path90"
             style="fill:#ffffff;fill-opacity:1;fill-rule:nonzero;stroke:#424242;stroke-width:1.25;stroke-linecap:round;stroke-linejoin:round;stroke-miterlimit:10;stroke-dasharray:none;stroke-opacity:1"
             d="m 0,0 c 0,0 1.958,4.351 5.046,5 2.938,0.617 5.4,2 7.009,5 0.793,1.479 2.116,5.75 2.116,5.75" /></g><g
           transform="translate(75.8561,28.1034)"
           id="g92"><path
             id="path94"
             style="fill:#ffffff;fill-opacity:1;fill-rule:nonzero;stroke:none"
             d="m 0,0 c 0,0 -1.324,3.848 -4.083,4.272 -3.747,0.575 -4.674,-2.153 -5.988,-1.144 -1.376,1.056 0.842,4.304 -1.679,4.337 -2.503,0.031 -4.152,-2.868 -5.925,-3.357 -1.812,-0.5 -0.211,2.814 -2.387,2.607 -2.625,-0.25 -4.436,-4.273 -5.942,-5.559 -1.031,-0.882 -1.476,2.006 -3.361,0.574 -1.219,-0.926 -1.945,-2.758 -3.511,-5.009 -1,-1.437 -6.03,-9.194 -6.03,-9.194 0,0 5.36,2.594 6.969,2.997 1.608,0.403 5.338,1.008 6.75,0 1.411,-1.008 2.381,2.767 3.792,2.565 1.411,-0.201 2.405,-2.708 4.622,-2.565 2.218,0.144 0.62,3.573 2.233,2.968 1.613,-0.604 1.79,-3.155 3.54,-3.762 1.536,-0.532 5.399,-0.26 5.583,1.155 0.125,0.959 -2.808,1.326 -1.599,2.133 1.21,0.806 1.738,0.028 3.266,1.132 C -1.894,-4.509 0,-1.75 0,0" /></g><g
           transform="translate(75.8561,28.1034)"
           id="g96"><path
             id="path98"
             style="fill:none;stroke:#424242;stroke-width:1.25;stroke-linecap:round;stroke-linejoin:round;stroke-miterlimit:10;stroke-dasharray:none;stroke-opacity:1"
             d="m 0,0 c 0,0 -1.324,3.848 -4.083,4.272 -3.747,0.575 -4.674,-2.153 -5.988,-1.144 -1.376,1.056 0.842,4.304 -1.679,4.337 -2.503,0.031 -4.152,-2.868 -5.925,-3.357 -1.812,-0.5 -0.211,2.814 -2.387,2.607 -2.625,-0.25 -4.436,-4.273 -5.942,-5.559 -1.031,-0.882 -1.476,2.006 -3.361,0.574 -1.219,-0.926 -1.945,-2.758 -3.511,-5.009 -1,-1.437 -6.03,-9.194 -6.03,-9.194 0,0 5.36,2.594 6.969,2.997 1.608,0.403 5.338,1.008 6.75,0 1.411,-1.008 2.381,2.767 3.792,2.565 1.411,-0.201 2.405,-2.708 4.622,-2.565 2.218,0.144 0.62,3.573 2.233,2.968 1.613,-0.604 1.79,-3.155 3.54,-3.762 1.536,-0.532 5.399,-0.26 5.583,1.155 0.125,0.959 -2.808,1.326 -1.599,2.133 1.21,0.806 1.738,0.028 3.266,1.132 C -1.894,-4.509 0,-1.75 0,0 Z" /></g><g
           transform="translate(45.064,10.7087)"
           id="g100"><path
             id="path102"
             style="fill:#ffffff;fill-opacity:1;fill-rule:nonzero;stroke:none"
             d="m 0,0 c 2.001,-0.819 1.769,2.349 3.02,2.1 3.647,-0.725 3.478,-8.052 5.897,-7.85 2.419,0.202 2.309,4.462 3.709,3.59 1.4,-0.872 1.604,-4.402 3.491,-5.72 1.935,-1.35 3.05,-2.162 7.175,-2.203 2.625,-0.027 6.938,1.458 8,3.646 0.99,2.037 -2,4.77 -2.25,7.124 -0.155,1.46 1.709,1.953 1.771,3.016 0.104,1.797 -0.978,2.719 -2.818,3.492 -2.804,1.178 -3.135,1.033 -3.885,2.242 -0.85,1.37 1.756,1.951 0.182,3.188 -3.5,2.75 -6.606,1.103 -8.375,1.375 -2.437,0.375 0.371,3.227 -1.75,3.375 C 10.542,17.627 8.436,15.381 7.33,14.735 5.807,13.844 5.763,17.177 3.719,16 1.792,14.891 0.531,12.689 -0.692,10.833 -1.092,10.226 -2.913,11.292 -5.041,9.031 -6.466,7.517 -9.764,4.75 -9.764,4.75 c -1.194,-1.376 -4.058,-2.338 -4.058,-2.338 0,0 4.177,-0.715 7.114,-0.715 C -3.77,1.697 -2.003,0.82 0,0" /></g><g
           transform="translate(45.064,10.7087)"
           id="g104"><path
             id="path106"
             style="fill:none;stroke:#424242;stroke-width:1.25;stroke-linecap:round;stroke-linejoin:round;stroke-miterlimit:10;stroke-dasharray:none;stroke-opacity:1"
             d="m 0,0 c 2.001,-0.819 1.769,2.349 3.02,2.1 3.647,-0.725 3.478,-8.052 5.897,-7.85 2.419,0.202 2.309,4.462 3.709,3.59 1.4,-0.872 1.604,-4.402 3.491,-5.72 1.935,-1.35 3.05,-2.162 7.175,-2.203 2.625,-0.027 6.938,1.458 8,3.646 0.99,2.037 -2,4.77 -2.25,7.124 -0.155,1.46 1.709,1.953 1.771,3.016 0.104,1.797 -0.978,2.719 -2.818,3.492 -2.804,1.178 -3.135,1.033 -3.885,2.242 -0.85,1.37 1.756,1.951 0.182,3.188 -3.5,2.75 -6.606,1.103 -8.375,1.375 -2.437,0.375 0.371,3.227 -1.75,3.375 C 10.542,17.627 8.436,15.381 7.33,14.735 5.807,13.844 5.763,17.177 3.719,16 1.792,14.891 0.531,12.689 -0.692,10.833 -1.092,10.226 -2.913,11.292 -5.041,9.031 -6.466,7.517 -9.764,4.75 -9.764,4.75 c -1.194,-1.376 -4.058,-2.338 -4.058,-2.338 0,0 4.177,-0.715 7.114,-0.715 C -3.77,1.697 -2.003,0.82 0,0 Z" /></g><g
           transform="translate(33.4811,13.1462)"
           id="g108"><path
             id="path110"
             style="fill:none;stroke:#424242;stroke-width:1.25;stroke-linecap:round;stroke-linejoin:round;stroke-miterlimit:10;stroke-dasharray:none;stroke-opacity:1"
             d="m 0,0 c 0,0 8.708,5.396 14.688,6.433 3.157,0.547 9.082,-0.385 11.02,-1.621 2.584,-1.645 3.644,-4.289 4.584,-5.552 1.145,-1.542 2.793,-3.258 4.583,-3.864" /></g><g
           transform="translate(7.7311,87.2848)"
           id="g112"><path
             id="path114"
             style="fill:#ffffff;fill-opacity:1;fill-rule:nonzero;stroke:none"
             d="m 0,0 c -1.136,-1.91 -0.266,-4.512 0.54,-6.326 0.806,-1.815 5.46,-1.8 5.335,-3.625 -0.108,-1.571 -4.571,-1.788 -4.25,-3.5 0.375,-2 2.303,-2.585 4.75,-2.75 2.508,-0.169 4.857,0.853 6.333,-0.5 1.5,-1.375 -3.315,-2.433 -1.458,-3.875 1.77,-1.375 3.165,-0.988 5.495,-0.613 1.927,0.311 2.947,0.339 4.13,-0.762 0.927,-0.863 -3.361,-0.728 -2.5,-2.375 0.947,-1.813 4.901,-1.665 6.25,-2.125 1.095,-0.374 2.818,-0.318 5.167,-1.989 2.145,-1.526 3.411,-3.882 3.411,-3.882 0,0 -0.12,7.503 0,9.371 0.194,3.027 0.035,10.306 -1.578,9.5 -1.613,-0.807 -2.38,-1.552 -2.602,0 -0.322,2.252 1.997,5.625 0.191,9.75 -1.046,2.391 -2.579,-1.688 -3.797,-1.544 -1.054,0.125 -2.503,2.874 -3.19,3.799 C 20.602,0.743 19.529,3.382 17.375,3.549 15.658,3.682 16.173,0.674 14.25,1.424 13.062,1.887 10.381,4.049 7.484,3.674 2.844,3.424 0,0 0,0" /></g><g
           transform="translate(7.7311,87.2848)"
           id="g116"><path
             id="path118"
             style="fill:none;stroke:#424242;stroke-width:1.25;stroke-linecap:round;stroke-linejoin:round;stroke-miterlimit:10;stroke-dasharray:none;stroke-opacity:1"
             d="m 0,0 c -1.136,-1.91 -0.266,-4.512 0.54,-6.326 0.806,-1.815 5.46,-1.8 5.335,-3.625 -0.108,-1.571 -4.571,-1.788 -4.25,-3.5 0.375,-2 2.303,-2.585 4.75,-2.75 2.508,-0.169 4.857,0.853 6.333,-0.5 1.5,-1.375 -3.315,-2.433 -1.458,-3.875 1.77,-1.375 3.165,-0.988 5.495,-0.613 1.927,0.311 2.947,0.339 4.13,-0.762 0.927,-0.863 -3.361,-0.728 -2.5,-2.375 0.947,-1.813 4.901,-1.665 6.25,-2.125 1.095,-0.374 2.818,-0.318 5.167,-1.989 2.145,-1.526 3.411,-3.882 3.411,-3.882 0,0 -0.12,7.503 0,9.371 0.194,3.027 0.035,10.306 -1.578,9.5 -1.613,-0.807 -2.38,-1.552 -2.602,0 -0.322,2.252 1.997,5.625 0.191,9.75 -1.046,2.391 -2.579,-1.688 -3.797,-1.544 -1.054,0.125 -2.503,2.874 -3.19,3.799 C 20.602,0.743 19.529,3.382 17.375,3.549 15.658,3.682 16.173,0.674 14.25,1.424 13.062,1.887 10.381,4.049 7.484,3.674 2.844,3.424 0,0 0,0 Z" /></g><g
           transform="translate(18.9811,83.0837)"
           id="g120"><path
             id="path122"
             style="fill:#ffffff;fill-opacity:1;fill-rule:nonzero;stroke:#424242;stroke-width:1.25;stroke-linecap:round;stroke-linejoin:round;stroke-miterlimit:10;stroke-dasharray:none;stroke-opacity:1"
             d="m 0,0 c 0,0 7.927,-5.307 9.75,-7.125 2.005,-2 4.594,-6.153 6.125,-8.125 2.836,-3.653 6.078,-11.843 6.078,-11.843" /></g><g
           transform="translate(20.4395,134.042)"
           id="g124"><path
             id="path126"
             style="fill:#ffffff;fill-opacity:1;fill-rule:nonzero;stroke:none"
             d="m 0,0 c 0,0 6.989,-0.184 7.583,-0.156 1.738,0.082 2.709,1.484 3.675,0.989 1.572,-0.805 1.318,-2.47 1.075,-4.333 -0.167,-1.285 -0.052,-3.244 1.667,-3.583 1.541,-0.305 3.035,2.432 3.966,1.808 1.616,-1.083 -1.383,-8.975 2.529,-10.058 1.407,-0.39 2.863,1.273 3.599,1.553 1.707,0.649 2.297,-3.499 3.383,-5.516 1.086,-2.016 3.44,-2.454 5.19,-1.704 1.75,0.75 2.707,1.968 3.75,4.583 1.028,2.579 0.839,4.066 -0.417,7.25 -1.028,2.606 4.183,1.511 2.648,4.417 -1.981,3.75 -5.947,4.776 -6.955,5.667 -1.871,1.653 2.633,2.042 1.547,3 -2.74,2.416 -5.727,2.027 -7.533,2.833 -1.807,0.806 0.957,2 -0.877,2.917 -3.229,1.614 -5.914,-1.647 -7.894,-1.417 -1.791,0.208 -0.846,2 -2.769,2 -2.328,0 -3.72,-2.305 -5.4,-3.639 C 8.034,6.028 5.211,6.657 3.84,4.683 1.757,1.683 0,0 0,0" /></g><g
           transform="translate(20.4395,134.042)"
           id="g128"><path
             id="path130"
             style="fill:none;stroke:#424242;stroke-width:1.25;stroke-linecap:round;stroke-linejoin:round;stroke-miterlimit:10;stroke-dasharray:none;stroke-opacity:1"
             d="m 0,0 c 0,0 6.989,-0.184 7.583,-0.156 1.738,0.082 2.709,1.484 3.675,0.989 1.572,-0.805 1.318,-2.47 1.075,-4.333 -0.167,-1.285 -0.052,-3.244 1.667,-3.583 1.541,-0.305 3.035,2.432 3.966,1.808 1.616,-1.083 -1.383,-8.975 2.529,-10.058 1.407,-0.39 2.863,1.273 3.599,1.553 1.707,0.649 2.297,-3.499 3.383,-5.516 1.086,-2.016 3.44,-2.454 5.19,-1.704 1.75,0.75 2.707,1.968 3.75,4.583 1.028,2.579 0.839,4.066 -0.417,7.25 -1.028,2.606 4.183,1.511 2.648,4.417 -1.981,3.75 -5.947,4.776 -6.955,5.667 -1.871,1.653 2.633,2.042 1.547,3 -2.74,2.416 -5.727,2.027 -7.533,2.833 -1.807,0.806 0.957,2 -0.877,2.917 -3.229,1.614 -5.914,-1.647 -7.894,-1.417 -1.791,0.208 -0.846,2 -2.769,2 -2.328,0 -3.72,-2.305 -5.4,-3.639 C 8.034,6.028 5.211,6.657 3.84,4.683 1.757,1.683 0,0 0,0 Z" /></g><g
           transform="translate(21.1034,134.0249)"
           id="g132"><path
             id="path134"
             style="fill:none;stroke:#424242;stroke-width:1.25;stroke-linecap:round;stroke-linejoin:round;stroke-miterlimit:10;stroke-dasharray:none;stroke-opacity:1"
             d="m 0,0 c 0,0 4.629,3.335 9.586,4.35 3.423,0.702 7.265,0.378 10.245,-1.25 8.088,-4.416 10.005,-14.083 10.005,-14.083" /></g><g
           transform="translate(51.0672,51.705)"
           id="g136"><path
             id="path138"
             style="fill:#ffffff;fill-opacity:1;fill-rule:nonzero;stroke:none"
             d="m 0,0 c -1.691,0 -5.539,1.441 -5.539,1.441 0,0 0.116,-0.558 -0.872,-0.558 -0.988,0 -3.556,3.042 -2.547,6.659 0.796,2.851 3.622,4.465 4.747,4.454 1.776,-0.019 1.761,-1.035 1.761,-1.035 0,0 0.829,-0.188 2.239,-0.895 1.46,-0.731 2.78,-1.547 3.312,-1.875 1.625,-1 0.5,-4.187 1.625,-5.875 C 3.351,2.899 1.691,0 0,0" /></g><g
           transform="translate(51.0672,51.705)"
           id="g140"><path
             id="path142"
             style="fill:none;stroke:#424242;stroke-width:1.25;stroke-linecap:round;stroke-linejoin:round;stroke-miterlimit:10;stroke-dasharray:none;stroke-opacity:1"
             d="m 0,0 c -1.691,0 -5.539,1.441 -5.539,1.441 0,0 0.116,-0.558 -0.872,-0.558 -0.988,0 -3.556,3.042 -2.547,6.659 0.796,2.851 3.622,4.465 4.747,4.454 1.776,-0.019 1.761,-1.035 1.761,-1.035 0,0 0.829,-0.188 2.239,-0.895 1.46,-0.731 2.78,-1.547 3.312,-1.875 1.625,-1 0.5,-4.187 1.625,-5.875 C 3.351,2.899 1.691,0 0,0 Z" /></g><g
           transform="translate(47.9186,62.2087)"
           id="g144"><path
             id="path146"
             style="fill:#ffffff;fill-opacity:1;fill-rule:nonzero;stroke:#424242;stroke-width:1.25;stroke-linecap:round;stroke-linejoin:round;stroke-miterlimit:10;stroke-dasharray:none;stroke-opacity:1"
             d="m 0,0 c 0,0 -2.459,-1.885 -2.758,-3.75 -0.351,-2.187 0.367,-5.313 0.367,-5.313" /></g><g
           transform="translate(38.2787,55.6182)"
           id="g148"><path
             id="path150"
             style="fill:#ffffff;fill-opacity:1;fill-rule:nonzero;stroke:none"
             d="m 0,0 c -1.546,-1.39 -1.57,-5.656 -0.965,-6.866 0.341,-0.681 1.521,-0.646 1.521,-0.646 0,0 1.848,-2.054 2.955,-2.839 1.208,-0.856 4.591,-0.101 6.021,-0.746 -0.349,1.724 0.851,3.37 0.968,4.752 0.118,1.382 -2.253,4.766 -2.746,5.702 0.393,0.489 0.095,0.844 -0.21,1.392 C 4.292,2.96 1.546,1.39 0,0" /></g><g
           transform="translate(38.2787,55.6182)"
           id="g152"><path
             id="path154"
             style="fill:none;stroke:#424242;stroke-width:1.25;stroke-linecap:round;stroke-linejoin:round;stroke-miterlimit:10;stroke-dasharray:none;stroke-opacity:1"
             d="m 0,0 c -1.546,-1.39 -1.57,-5.656 -0.965,-6.866 0.341,-0.681 1.521,-0.646 1.521,-0.646 0,0 1.848,-2.054 2.955,-2.839 1.208,-0.856 4.591,-0.101 6.021,-0.746 -0.349,1.724 0.851,3.37 0.968,4.752 0.118,1.382 -2.253,4.766 -2.746,5.702 0.393,0.489 0.095,0.844 -0.21,1.392 C 4.292,2.96 1.546,1.39 0,0 Z" /></g><g
           transform="translate(38.8345,48.1067)"
           id="g156"><path
             id="path158"
             style="fill:#ffffff;fill-opacity:1;fill-rule:nonzero;stroke:#424242;stroke-width:1.25;stroke-linecap:round;stroke-linejoin:round;stroke-miterlimit:10;stroke-dasharray:none;stroke-opacity:1"
             d="M 0,0 C -0.441,1.794 0.971,4.273 1.76,5.243 2.951,6.708 6.414,6.856 6.414,6.856" /></g><g
           transform="translate(26.516,108.2618)"
           id="g160"><path
             id="path162"
             style="fill:none;stroke:#424242;stroke-width:1.25;stroke-linecap:round;stroke-linejoin:round;stroke-miterlimit:10;stroke-dasharray:none;stroke-opacity:1"
             d="M 0,0 C 0.948,1.414 2.474,2.891 4.132,3.28 5.898,3.694 8.401,2.835 9.192,1.202 10.316,-1.118 7.086,-3.906 8.24,-6.211 8.297,-6.326 8.367,-6.438 8.471,-6.514 8.66,-6.652 8.916,-6.638 9.149,-6.618 c 1.135,0.095 2.616,0.756 3.405,0.286 0.789,-0.471 0.11,-2.002 -0.249,-2.927 -0.072,-0.186 -0.178,-0.051 -0.144,-0.576 0.035,-0.525 0.666,-0.757 1.182,-0.864" /></g><g
           transform="translate(11.1932,18.9153)"
           id="g164"><path
             id="path166"
             style="fill:#ffffff;fill-opacity:1;fill-rule:nonzero;stroke:none"
             d="m 0,0 c 0,0 3.309,3.962 3.038,5.793 -0.271,1.832 -1.374,2.889 -1.5,4.5 -0.126,1.612 1.539,1.235 1.375,3.25 -0.164,2.02 -3.61,2.84 -3.625,5.671 -0.011,2 2.313,0.802 2.531,2.003 0.219,1.201 -3.215,4.174 -2.531,6.201 0.627,1.859 4.636,0.223 4.373,1.798 -0.375,2.245 -0.748,7.702 3.377,8.338 5.571,0.859 4.884,-7.472 6.356,-7.977 1.305,-0.448 3.059,0.591 3.295,-2.027 0.246,-2.74 -2.814,-5.126 -2.526,-6.382 0.288,-1.255 3.201,-1.355 2.749,-3.124 -0.644,-2.52 -2.881,-3.219 -3.935,-5.008 C 11.288,10.168 14.14,10.428 13.023,8.979 11.625,7.164 11.034,6.466 9.163,5.168 7.229,3.827 0,0 0,0" /></g><g
           transform="translate(11.1932,18.9153)"
           id="g168"><path
             id="path170"
             style="fill:none;stroke:#424242;stroke-width:1.25;stroke-linecap:round;stroke-linejoin:round;stroke-miterlimit:10;stroke-dasharray:none;stroke-opacity:1"
             d="m 0,0 c 0,0 3.309,3.962 3.038,5.793 -0.271,1.832 -1.374,2.889 -1.5,4.5 -0.126,1.612 1.539,1.235 1.375,3.25 -0.164,2.02 -3.61,2.84 -3.625,5.671 -0.011,2 2.313,0.802 2.531,2.003 0.219,1.201 -3.215,4.174 -2.531,6.201 0.627,1.859 4.636,0.223 4.373,1.798 -0.375,2.245 -0.748,7.702 3.377,8.338 5.571,0.859 4.884,-7.472 6.356,-7.977 1.305,-0.448 3.059,0.591 3.295,-2.027 0.246,-2.74 -2.814,-5.126 -2.526,-6.382 0.288,-1.255 3.201,-1.355 2.749,-3.124 -0.644,-2.52 -2.881,-3.219 -3.935,-5.008 C 11.288,10.168 14.14,10.428 13.023,8.979 11.625,7.164 11.034,6.466 9.163,5.168 7.229,3.827 0,0 0,0 Z" /></g><g
           transform="translate(19.7365,43.7778)"
           id="g172"><path
             id="path174"
             style="fill:none;stroke:#424242;stroke-width:1.25;stroke-linecap:round;stroke-linejoin:round;stroke-miterlimit:10;stroke-dasharray:none;stroke-opacity:1"
             d="m 0,0 c 0,0 -0.078,-5.758 -0.005,-7.444 0.089,-2.067 -0.201,-6.454 -0.75,-8.23 -1,-3.235 -3.769,-6.32 -3.769,-6.32" /></g></g></g></g></svg>