<?xml version="1.0" encoding="utf-8"?>
<!-- Generator: Adobe Illustrator 23.0.3, SVG Export Plug-In . SVG Version: 6.00 Build 0)  -->
<svg version="1.1" id="Слой_1" xmlns="http://www.w3.org/2000/svg" xmlns:xlink="http://www.w3.org/1999/xlink" x="0px" y="0px"
	 viewBox="0 0 135.186 135.802" style="enable-background:new 0 0 135.186 135.802;" xml:space="preserve">
<path style="fill:#211C1C;" d="M103.04,4.242h25.76v1.84l-4.63,1.157c-3.767,0.942-6.41,4.326-6.41,8.209v106.536
	c0,3.795,2.583,7.103,6.264,8.023l4.776,1.194v1.84H91.08v-1.84l4.776-1.194c3.681-0.921,6.264-4.229,6.264-8.023V19.882
	L62.56,135.802H59.8L15.64,19.882v101.135c0,3.365,2.072,6.382,5.213,7.59l6.747,2.595v1.84H0v-1.84l6.208-2.388
	c3.466-1.333,5.752-4.663,5.752-8.376V15.911c0-3.655-2.384-6.883-5.878-7.958L0,6.082v-1.84h26.68l40.296,105.8L103.04,4.242z"/>
<path style="fill:none;stroke:#211C1D;stroke-width:1.25;stroke-linecap:round;stroke-linejoin:round;stroke-miterlimit:10;" d="
	M113.887,128.595c0,0-4.929,0.299-6.578,0.021c-1.65-0.279-1.994-2.585-3.354-2.669c-1.36-0.084-3.955,0.348-6.231-0.457
	c-2.275-0.804,1.276-2.819-0.278-3.502c-2.042-0.897-7.531-1.097-7.994-1.921c-1.036-1.845,1.636-2.204,1.054-3.173
	s-5.147-1.553-5.569-3.108c-0.641-2.362,2.503-2.178,1.435-3.643c-1.068-1.465-3.517-3.765-2.948-5.697
	c0.57-1.932,2.935-1.143,3.128-3.011c0.241-2.335,0.922-7.694,4.959-7.233c5.339,0.609,3.299,5.797,5.406,6.423
	c1.254,0.372,2.188-2.223,3.26-1.028c3.064,3.417-0.711,6.306-0.037,7.957c0.709,1.737,2.333-1.247,3.044,0.352
	c0.711,1.599-1.967,4.384-0.67,6.501c0.953,1.556,2.806,0.067,3.424,1.211c0.618,1.144,0.128,3.835,0.614,5.272
	s3.62,3.703,3.62,3.703L113.887,128.595z"/>
<path style="fill:none;stroke:#211C1D;stroke-width:1.25;stroke-linecap:round;stroke-linejoin:round;stroke-miterlimit:10;" d="
	M103.43,120.195c-3.895-2.573-7.671-6.683-8.643-8.292c-1.637-2.712-2.957-6.372-3.206-7.621"/>
<path style="fill:none;stroke:#211C1D;stroke-width:1.25;stroke-linecap:round;stroke-linejoin:round;stroke-miterlimit:10;" d="
	M117.794,119.359c0.903,2.337,6.923,4.249,9.193,4.122c2.036-0.114,4.057-0.947,4.057-0.947s0.334,4.797-2.534,6.996
	c-2.628,2.015-7.8-1.788-7.8-1.788"/>
<path style="fill:#FFFFFF;stroke:#211C1D;stroke-width:1.25;stroke-linecap:round;stroke-linejoin:round;stroke-miterlimit:10;" d="
	M46.241,39.503l-3.136-11.372c0,0-2.098-7.309,0.087-8.848c0.498-0.351,1.432,1.227,2.171,0.495c1.135-1.123-1.375-5.64-0.039-7.197
	c1.166-1.359,1.109-0.305,2.313-0.708c1.204-0.403,1.069-5.269,2.738-6.311c1.669-1.042,2.633,1.234,3.55,1.014
	c0.917-0.22,4.653-4.572,7.423-2.461c4.244,3.233,2.364,5.931,1.548,9.207c-0.477,1.914,2.944,0.208,2.426,3.256
	c-0.29,1.708-3.903,3.179-5.242,4.367c-1.097,0.973,1.599,1.507,0.182,3.586c-0.939,1.379-5.455,1.947-5.864,2.878
	c-0.338,0.77,1.68,2.187,0.893,3.11c-0.902,1.059-3.199,1.488-4.14,1.966C48.211,33.979,46.241,39.503,46.241,39.503z"/>
<path style="fill:#FFFFFF;stroke:#211C1D;stroke-width:1.25;stroke-linecap:round;stroke-linejoin:round;stroke-miterlimit:10;" d="
	M14.054,3.515c-1.522,3.893-0.773,7.746,0.944,10.38c1.479,2.27,5.147,4.263,5.746,5.513c0.598,1.25-1.975,2.428-1.782,3.881
	c0.193,1.453,2.405,2.684,5.1,2.711s4.513-1.182,5.117,0.689s-2.205,2.485-0.915,4.348c1.381,1.995,5.872,1.885,7.31,3.143
	c1.439,1.258-0.233,1.471,1.002,3.211c1.377,1.941,3.668,0.482,5.31,2.157c1.642,1.675,4.07,7.71,4.07,7.71l0.035-3.524l0.098-9.958
	c0,0,0.637-4.582-1.166-5.818c-1.181-0.81,2.002-6.309,1.51-7.734c-0.667-1.932-2.916,0.075-3.568-1.333
	c-0.938-2.026,2.024-10.453-1.369-11.365c-2.311-0.621-2.849,1.896-4.027,1.443c-1.128-0.434-2.321-8.366-5.85-8.346
	c-1.658,0.01-1.085,2.142-3.249,2.121c-2.163-0.021-4.709-1.262-6.18-1.429C19.662,1.031,15.469-0.106,14.054,3.515z"/>
<path style="fill:none;stroke:#211C1D;stroke-width:1.25;stroke-linecap:round;stroke-linejoin:round;stroke-miterlimit:10;" d="
	M22.899,9.257c0,0,6.309,4.41,9.434,6.928s5.028,6.763,6.458,8.85c1.43,2.087,3.587,7.175,4.255,9.055
	c0.891,2.507,2.087,9.059,2.087,9.059"/>
<path style="fill:#FFFFFF;stroke:#211C1D;stroke-width:1.25;stroke-linecap:round;stroke-linejoin:round;stroke-miterlimit:10;" d="
	M45.005,44.958c0,0-1.16-3.865-3.12-5.409c-1.791-1.411-3.56-2.632-5.31-2.157c-1.336,0.363-1.265,1.899-2.135,1.994
	c-0.87,0.095-4.679-1.014-7.208,0.629c-1.401,0.911,1.204,2.2-0.308,2.955c-0.946,0.472-5.139-0.83-7.179,2.639
	c-1.038,1.765,2.774,2.143,2.338,3.175c-0.436,1.032-4.051,2.457-5.09,6.045c-0.679,2.344,1.94,1.566,2.33,2.813
	c0.391,1.248-2.079,7.068,2.489,10.68c3.06,2.42,6.328-3.195,7.181-4.223c0.854-1.028,2.208,0.644,3.913,0.039
	c1.704-0.605-1.263-5.762,0.077-7.54c0.784-1.039,3.051,1.274,4.1,0.041c1.049-1.233-1.516-4.461-0.471-5.279
	s2.44,0.286,3.312-1.086c0.676-1.064-0.96-4.214,1.326-4.813C43.536,44.861,45.005,44.958,45.005,44.958z"/>
<path style="fill:none;stroke:#211C1D;stroke-width:1.25;stroke-linecap:round;stroke-linejoin:round;stroke-miterlimit:10;" d="
	M44.657,44.953c0,0-2.846-3.291-7.993-1.538c-2.093,0.813-4.892,2.531-6.885,4.492c-1.903,1.872-4.006,6.801-4.006,6.801"/>
<path style="fill:none;stroke:#211C1D;stroke-width:1.25;stroke-linecap:round;stroke-linejoin:round;stroke-miterlimit:10;" d="
	M46.637,38.538l0.055-5.596c0,0,3.426-8.672,4.584-10.575c2.005-3.295,6.038-9.1,6.038-9.1"/>
<path style="fill:#FFFFFF;stroke:#211C1D;stroke-width:1.25;stroke-linecap:round;stroke-linejoin:round;stroke-miterlimit:10;" d="
	M12.639,119.968c-2.397,0.763-4.08,1.855-4.211,3.362c-0.182,2.104,0.496,3.561,2.54,4.648c1.209,0.643,2.707,1.161,5.332,0.873
	s5.56-1.98,7.399-2.571c1.839-0.591,4.604-1.868,5.529-2.146c0.925-0.278,2.871-1.434,4.436-1.574
	c1.564-0.14,2.887,1.856,4.802,2.246c3.015,0.614,1.53-2.325,2.746-2.434c1.317-0.118,1.764,3.314,3.954,4.134
	c2.014,0.755,2.311-1.893,3.599-1.305c1.553,0.709,0.937,2.172,3.219,4.078c1.148,0.959,2.548-1.18,3.837-0.875
	c1.289,0.305,4.396,3.71,6.879,2.016s1.678-8.844-0.483-10.618c-1.733-1.423,1.75-2.109-0.933-4.233
	c-1.366-1.081-3.025-0.024-4.601-0.514c-1.576-0.489,1.589-2.785-1.024-4.022c-2.613-1.238-5.213,1.548-6.966,0.757
	c-1.59-0.717-0.977-2.514-2.756-2.62c-2.444-0.146-4.701,3.254-6.763,3.805c-1.493,0.399-2.658-1.182-4.238-0.588
	c-0.967,0.364-3.285,3.057-3.907,4.538c-0.048,0.115-1.693-0.874-2.878,0.356c-1.482,1.54-1.213,3.396-1.915,4.335
	c-1.306,1.748-2.144,3.672-4.628,4.105s-6.467,0.15-7.885-1.603S12.639,119.968,12.639,119.968z"/>
<path style="fill:none;stroke:#211C1D;stroke-width:1.25;stroke-linecap:round;stroke-linejoin:round;stroke-miterlimit:10;" d="
	M23.699,126.28c0,0,10.119-8.957,18.799-8.799c5.494,0.1,11.716,3.38,11.716,3.38"/>
<path style="fill:#FFFFFF;stroke:#211C1D;stroke-width:1.25;stroke-linecap:round;stroke-linejoin:round;stroke-miterlimit:10;" d="
	M55.065,46.224c1.768-0.075,2.836-1.31,4.89-1.316c-0.911-1.917,0.059-5.707-1.855-7.27c-1.142-0.932-3.539-2.481-3.539-2.481
	s-0.281-1.411-2.972-1.142c-2.953,0.295-4.408,2.97-4.703,4.948c-0.296,1.978,0.966,4.814,0.966,4.814"/>
<path style="fill:none;stroke:#211C1D;stroke-width:1.25;stroke-linecap:round;stroke-linejoin:round;stroke-miterlimit:10;" d="
	M54.561,35.158c0,0-2.088,2.253-2.817,3.341c-0.799,1.192-1.421,3.684-1.421,3.684"/>
<path style="fill:#FFFFFF;stroke:#211C1D;stroke-width:1.25;stroke-linecap:round;stroke-linejoin:round;stroke-miterlimit:10;" d="
	M24.933,122.607c0,0,6.889-14.21,9.087-19.007c1.968-4.293,5.223-13.531,6.497-20.723c0.15-0.844,1.984-6.735,4.96-7.07
	c-0.775-1.026-1.68-3.129-4.352-0.575c-0.176-4.704-0.5-9.057-0.038-13.363c0.791-7.375,5.261-17.049,5.261-17.049
	s1.018-1.362,0.565-1.867c-0.452-0.504-2.374-0.151-2.646,0.171c-1.614,1.907-5.04,9.951-6.16,17.067
	c-0.647,4.111-0.208,16.708-0.808,21.08c-0.332,2.417-0.99,6.714-1.855,9.941c-1.134,4.23-3.902,10.792-5.946,15.962
	c-0.651,2.639-6.131,10.625-6.131,10.625L24.933,122.607z"/>
<path style="fill:#FFFFFF;stroke:#211C1D;stroke-width:1.25;stroke-linecap:round;stroke-linejoin:round;stroke-miterlimit:10;" d="
	M20.378,125.483c0,0,2.32-1.452,2.744-3.365c0.248-1.123,0.32-4.87-0.47-6.39c-0.729-1.404-3.304-4.544-3.483-5.839
	c-0.276-1.997,2.086-1.289,1.374-3.779c-0.517-1.806-5.819-2.715-6.565-5.303c-0.629-2.183,2.066-2.587,1.37-4.047
	c-1.394-2.927-5.649-2.942-6.029-6.086c-0.239-1.976,1.858-2.13,2.459-3.609s-2.09-5.857,1.361-9.915
	c4.529-5.325,7.879,0.457,9.677,0.215c2.085-0.28,3.136-1.451,4.721-0.066c1.584,1.386,1.153,5.294,1.703,6.582
	c0.577,1.352,2.558-0.463,3.203,1.286c1.348,3.653-1.729,6.751-1.474,8.656c0.345,2.574,3.791,1.063,3.914,3.259
	c0.194,3.484-4.464,5.688-4.24,7.8c0.215,2.027,2.537,0.595,2.669,2.333c0.157,2.074-2.686,4.299-3.252,5.817
	c-0.495,1.328,0.819,0.674,0.782,2.544c-0.04,1.99-5.082,5.992-5.967,7.064C23.719,124.036,20.378,125.483,20.378,125.483z"/>
<path style="fill:none;stroke:#211C1D;stroke-width:1.25;stroke-linecap:round;stroke-linejoin:round;stroke-miterlimit:10;" d="
	M23.676,123.365c0,0,2.625-10.414,2.103-17.159c-0.275-3.555-2.134-12.158-3.547-15.163c-0.497-1.057-3.724-6.204-3.724-6.204"/>
<path style="fill:#FFFFFF;stroke:#211C1D;stroke-width:1.25;stroke-linecap:round;stroke-linejoin:round;stroke-miterlimit:10;" d="
	M115.998,123.665c-5.787-11.508-7.708-15.929-8.329-18.547c-1.019-4.298-2.177-12-2.177-12s-0.643-6.137-3.656-8.375
	c1.5-1.869,3.656-0.375,3.656-0.375s2.32-10.777,1.719-14.875c-0.314-2.137-1.719-6.125-3.501-8.431
	c-1.687-2.183,2.216-8.181,2.216-8.181s2.422,9.067,3.41,11.488c2.5,6.125-0.962,17.336-0.566,21.625
	c0.3,3.25,0.858,14.296,2.191,16.621c2.29,3.994,3.417,19.264,7.278,22.179"/>
<path style="fill:#FFFFFF;stroke:#211C1D;stroke-width:1.25;stroke-linecap:round;stroke-linejoin:round;stroke-miterlimit:10;" d="
	M120.711,127.742c0,0-3.375-4-2.032-7.221c0.899-2.155-1.372-2.064-0.44-3.467c0.856-1.288,3.382-1.355,4.097-2.125
	c2.09-2.25,0.016-3.265,0.591-3.937c1.499-1.751,4.534-0.126,6.405-2.981c0.846-1.29-1.295-2.283-1.077-3.77
	c0.208-1.417,5.11-0.772,6.172-3.834c0.766-2.207-1.984-3.092-2.098-3.664c-0.276-1.39,3.78-3.885,1.032-6.745
	c-1.702-1.77-5.213-2.257-6.998-1.056c-0.602,0.405-2.142,2.287-3.48,2.562c-1.27,0.261-2.361-2.2-4.592-0.575
	c-1.62,1.18-1.093,4.959-1.655,6.297c-0.594,1.412-0.738-1.359-2.551,0.203c-2.172,1.873,0.904,6.013,0.079,7.038
	c-0.824,1.025-2.115-0.465-2.786,1.232c-0.721,1.823,2.035,4.502,1.377,5.962c-0.575,1.275-1.824-0.301-1.922,1.7
	c-0.112,2.273,0.416,3.652,0.876,5.131c0.591,1.901,1.407,3.093,2.562,4.625C116.368,125.894,120.711,127.742,120.711,127.742z"/>
<path style="fill:none;stroke:#211C1D;stroke-width:1.25;stroke-linecap:round;stroke-linejoin:round;stroke-miterlimit:10;" d="
	M125.961,96.555c0,0-5.779,7.653-7,10.271c-0.586,1.257-3.513,5.917-4.299,9.926c-0.788,4.016,3.852,9.57,3.852,9.57"/>
<path style="fill:#FFFFFF;stroke:#211C1D;stroke-width:1.25;stroke-linecap:round;stroke-linejoin:round;stroke-miterlimit:10;" d="
	M106.018,57.419c0,0,0.945-4.608,3.327-6.668c1.431-1.237,4.378-0.222,5.09-1.162s-1.109-1.705,0.063-2.369
	c1.172-0.664,5.046-0.155,6.374-1.238c1.13-0.922-1.134-2.416-0.481-2.992c0.833-0.734,5.98-0.219,7.037-1.526
	c1.828-2.261-2.123-2.906-1.347-4.192c0.774-1.284,2.977-1.559,4.231-2.36c1.285-0.82,2.253-4.664,0.898-6.128
	c-1.131-1.222-3.022-1.599-5.833-1.583c-1.512,0.008-4.186,0.563-5.179,0.358s-2.761-2.057-4.039-0.758
	c-1.595,1.622-1.929,5.474-2.977,6.48c-1.039,0.997-1.956-1.844-3.186,0.076c-0.938,1.464-0.561,3.87-1.162,5.631
	c-0.437,1.279-0.493,1.132-1.723,1.346c-1.408,0.245-1.315,4.31-1.581,6.226c-0.146,1.055,0.17,8.318,0.17,8.318L106.018,57.419z"/>
<path style="fill:#FFFFFF;stroke:#211C1D;stroke-width:1.25;stroke-linecap:round;stroke-linejoin:round;stroke-miterlimit:10;" d="
	M105.905,57.045c0.097,0.524-1.866-0.781-2.131-1.244c-1.266-2.214-1.882-3.69-2.433-5.242c-0.803-2.26-6.005-12.469-5.129-15.351
	c0.659-2.169,2.837-0.536,2.962-1.803c0.135-1.36-2.972-4.534-1.581-8.383c1.246-3.448,3.471-0.312,4.246-2.448
	c0.74-2.038-3.131-4.561-1.692-8.494c0.858-2.346,3.346,0.481,4.855-1.799c1.453-2.196-1.501-6.3,1.313-8.326
	c2.419-1.742,4.252,3.102,5.729,2s9.046-5.491,12.816-3.692c2.161,1.031,0.17,4.152-0.751,6.264
	c-0.664,1.523-1.368,2.12-1.469,3.812s3.984,2.548,3.222,4.624c-0.87,2.369-6.195,2.069-6.794,3.223
	c-0.598,1.154,2.633,2.244,1.877,3.455c-1.561,2.499-6.749,2.3-7.879,4.23c-0.522,0.891,4.057,1.545,3.421,3.206
	c-0.636,1.661-6.776,4.607-7.28,5.738c-0.836,1.874,2.388,3.103,1.537,4.794c-0.614,1.219-3.161,2.892-4.26,5.202
	C105.174,49.57,105.338,53.992,105.905,57.045z"/>
<path style="fill:none;stroke:#211C1D;stroke-width:1.25;stroke-linecap:round;stroke-linejoin:round;stroke-miterlimit:10;" d="
	M113.964,13.994c0,0-4.764,5.442-5.854,7.715s-2.185,5.365-3.032,9.151c-0.613,2.738-1.415,10.173-1.595,13.046
	c-0.644,5.669,1.356,12.669,1.356,12.669"/>
<path style="fill:#FFFFFF;stroke:#211C1D;stroke-width:1.25;stroke-linecap:round;stroke-linejoin:round;stroke-miterlimit:10;" d="
	M73.803,49.331c-1.664,2.221-2.266,5.249-0.281,8.31c1.352,2.085,4.397,2.117,5.318,4.183c0.67,1.502-0.914,2.643,0.354,4.604
	c1.441,2.23,6.604,0.784,7.953,1.958c1.749,1.523-0.058,3.986,1.542,4.589c1.786,0.673,3.086,0.082,5.06,0.619
	c1.975,0.537-0.026,4.548,2.028,5.227c1.932,0.638,3.955,0.674,5.607,1.518c2.859,1.46,3.456,3.236,3.456,3.236
	s0.083-7.11-0.472-9.376c-0.416-1.699-0.58-5.804-1.245-6.666c-1.275-1.652-2.588,1.041-3.555-0.712
	c-0.836-1.514,0.311-5.322-0.519-7.441c-0.829-2.119-3.533,1.228-4.051-1.263c-0.519-2.491,1.242-5.771-0.134-7.37
	c-1.945-2.259-2.64,1.045-4.152,0.12c-2.24-1.37-2.564-6.331-5.31-6.576c-3.236-0.288-1.906,4.386-3.857,3.806
	C79.503,47.492,75.189,47.481,73.803,49.331z"/>
<path style="fill:none;stroke:#211C1D;stroke-width:1.25;stroke-linecap:round;stroke-linejoin:round;stroke-miterlimit:10;" d="
	M85.516,57.148c0,0,4.951,4.545,8.625,8.597c4.705,5.189,10.699,16.83,10.699,16.83"/>
<path style="fill:none;stroke:#211C1D;stroke-width:1.25;stroke-linecap:round;stroke-linejoin:round;stroke-miterlimit:10;" d="
	M121.293,34.561c-2.059,0.911-8.07,4.544-10.453,7.014"/>
<path style="fill:none;stroke:#211C1D;stroke-width:1.25;stroke-linecap:round;stroke-linejoin:round;stroke-miterlimit:10;" d="
	M130.211,123.117c0,0-1.475,0.39-2.845,2.089c-0.484,0.601-1.068,2.715-1.068,2.715"/>
<path style="fill:#FFFFFF;stroke:#211C1D;stroke-width:1.25;stroke-linecap:round;stroke-linejoin:round;stroke-miterlimit:10;" d="
	M43.705,51.49c0,0-2.536-4.192,1.427-8.341c2.14-2.241,5.409-1.437,7.069-0.273c1.708,1.198,0.824,1.959,0.824,1.959
	s1.47,2.233,2.405,4.466s-0.764,4.994-0.79,7.571c-2.127-0.539-4.728,0.463-6.886-0.954c-2.525-1.657-3.158-4.807-3.158-4.807
	L43.705,51.49z"/>
<path style="fill:none;stroke:#211C1D;stroke-width:1.25;stroke-linecap:round;stroke-linejoin:round;stroke-miterlimit:10;" d="
	M44.592,51.503c0,0,1.95-3.383,3.757-5.127c1.334-1.288,4.681-1.907,4.681-1.907"/>
</svg>
