<?xml version="1.0" encoding="utf-8"?>
<!-- Generator: Adobe Illustrator 24.1.3, SVG Export Plug-In . SVG Version: 6.00 Build 0)  -->
<svg version="1.1" id="Layer_9" xmlns="http://www.w3.org/2000/svg" xmlns:xlink="http://www.w3.org/1999/xlink" x="0px" y="0px"
	 viewBox="0 0 161.36 81.02" style="enable-background:new 0 0 161.36 81.02;" xml:space="preserve">
<style type="text/css">
	.st0{fill:none;stroke:#333333;stroke-width:1.8719;stroke-linecap:round;stroke-linejoin:round;stroke-miterlimit:10;}
	.st1{fill:#FFFFFF;stroke:#333333;stroke-width:1.8719;stroke-linecap:round;stroke-linejoin:round;stroke-miterlimit:10;}
	.st2{fill:#FFFFFF;stroke:#333333;stroke-width:2.0162;stroke-linecap:round;stroke-linejoin:round;stroke-miterlimit:10;}
	.st3{fill:none;stroke:#333333;stroke-width:1.8719;stroke-linecap:round;stroke-miterlimit:10;}
	.st4{fill:#FFFFFF;stroke:#333333;stroke-width:1.6981;stroke-linecap:round;stroke-linejoin:round;stroke-miterlimit:10;}
	.st5{fill:none;stroke:#333333;stroke-width:1.6981;stroke-linecap:round;stroke-linejoin:round;stroke-miterlimit:10;}
	.st6{fill:#FFFFFF;stroke:#333333;stroke-width:1.6967;stroke-linecap:round;stroke-linejoin:round;stroke-miterlimit:10;}
	.st7{fill:none;stroke:#333333;stroke-width:1.6967;stroke-linecap:round;stroke-linejoin:round;stroke-miterlimit:10;}
	.st8{fill:none;stroke:#333333;stroke-width:2.0162;stroke-linecap:round;stroke-linejoin:round;stroke-miterlimit:10;}
	.st9{fill:#FFFFFF;stroke:#333333;stroke-width:1.7861;stroke-linecap:round;stroke-linejoin:round;stroke-miterlimit:10;}
	.st10{fill:#FFFFFF;stroke:#333333;stroke-width:1.8133;stroke-linecap:round;stroke-linejoin:round;stroke-miterlimit:10;}
</style>
<g id="Layer_7_copy">
	<path class="st0" d="M92.62,59.98c2.92,1.03,6.13-1.89,8.42-5.21c0,1.81-0.94,7.1-1.49,8.6c-1.11,3.05-5.84,2.93-5.77,5.87
		c0.06,2.94,3.25,2.82,3.25,2.82s1.42-0.22,1.42-1.46"/>
	<path class="st1" d="M100.06,48.27c0,0-3.96,3.78-6.44,4.46c-2.49,0.68-7.87,0.68-7.87,0.68"/>
	<path class="st2" d="M44.44,67.1c-1.88-0.03-11.23,2.15-20.11-2.73C13.18,58.23,11.74,46.7,11.46,44.52
		c-1.17-9.06-1-18.68,9.32-24.73c4.93-2.89,16.96-4.66,24.73-4.66c11.63,0,19.69,0.6,25.81,5.02C82,27.85,84.85,32.56,94.64,42.35
		c2.46,2.46,11.28,9.85,12.88,8.25c0.65-0.65-2.25-3-5.9-6.1c-1.69-1.8-6.71-7.22-12.02-12.89C76.73,17.89,73.73,16.47,68.99,14.23
		c-7.94-3.75-9.35-2.8-17.84-2.87c-13.44-0.11-26.48-0.3-36.82,6.63C6.69,23.12,3.57,35.24,4.65,44.16
		c1.2,9.94,5.9,16.02,10.93,21.15c3.37,3.44,11.77,10.53,21.69,11.11c2.15,0.13,7.28,0.66,8.84-2.63
		C47.38,71.11,46.48,67.21,44.44,67.1z"/>
	<path class="st1" d="M99.43,46.43c-0.78,0.25-1.16,3.23-0.91,5.92c0.19,2.05,1.44,3.72,2.07,6.18c0.63,2.49,0.65,5.77,1.58,7.76
		c0.84,1.79,2.71,0.83,3.62,3.01c2.2,5.31,2.37,6.32,4.14,6.41c1.85,0.09,2.3-1.45,4.14-1.43c3.19,0.03,4.07,5.79,7.31,5.8
		c3.32,0.01,4-1.3,5.95-2.71c1.72-1.25,4.95,1.96,10.25-1.51c2.77-1.81,4.41-5.29,3.99-8.59c-0.4-3.1-3.99-6.68-6.88-7.16
		c-2.95-0.49-2.52,2.29-5.18,1.58c-2.78-0.74-0.38-4.05-2.94-4.51c-2.49-0.44-8.23,1.79-9.57-0.58c-1.36-2.41-1.97,0.67-5.2,0.19
		c-2.5-0.36-2.55-3.28-4.9-3.84C104.13,50.84,100.06,47.76,99.43,46.43z"/>
	<path class="st3" d="M100.06,48.27c0,0,4.07,9.28,10.4,15.14c9.57,8.85,17.56,5.9,17.56,5.9"/>
	<path class="st4" d="M56.2,15.05c-0.9,0.68,1.79,2.88,1.79,6.05c-0.53,4.67-3.38,3.94-3.38,6.65c0,2.32,2.19,1.39,2.19,3.62
		c0,2.1-4,3.33-3.47,5.8c0.31,1.44,3.12,0.78,3.39,2.52c0.29,1.85-2.86,3.59-2.3,5.46c0.97,3.22,3.47,1.97,4.94,3.43
		c1.34,1.34,0.7,7.14,6.03,6.63c5.58-0.53,4.09-3.69,6.33-6.33c1.56-1.84,4.46-2.11,4.47-4.62c0.02-3.69-3.27-4.24-2.76-6.41
		c0.4-1.72,2.13-1.86,2.13-3.9c0-3.05-4.95-4.07-5.57-6.41c-0.5-1.92,0.59-2.21,0-3.88c-0.65-1.84-2.82-2.16-6.57-4.11
		C58.78,17.16,57.75,13.9,56.2,15.05z"/>
	<path class="st5" d="M56.2,15.05c3.32,3.32,7.93,10.35,9.42,18.54c0.95,5.23,0.63,9.71,0.15,12.81"/>
	<path class="st6" d="M57.14,14.83c-1.02,0.13,1.91-4.32,3.83-6.63c1.66-2,2.88-0.26,4.21-0.91c2.35-1.15,2.02-5.14,4.76-5.14
		c1.51,0,1.68,1.77,3.64,1.49c2.04-0.3,3.52-3.21,5.46-2.73c2.99,0.74,1.27,2.55,3.92,3.33c3.19,0.94,3.88,1.81,5.63,3.56
		c2.05,2.05,2.61,5.79,1.13,7.26c-0.84,0.84-2.03,2.21-4.21,2.41c-2.22,0.21-3.65-2.01-5.26-1.41c-1.05,0.39,0.06,2.32-1.94,2.84
		c-3.05,0.8-6.05-3.24-8.45-3.5c-1.1-0.12-1.22,1.8-3.14,2.2c-1.62,0.33-2.86-2.14-4.1-2.53C60.3,14.32,59.05,14.58,57.14,14.83z"/>
	<path class="st7" d="M57.7,13.53c4.08-1.25,8.15-1.96,11.81-2.71c3.53-0.72,6.69-0.9,10.49-0.46"/>
	<path class="st2" d="M32,65.85c3.22-3.22,9.11-7.63,8.37-10.41c-0.5-1.91-2.63-1.66-2.62-3.47c0-2,1.95-4.04,1.72-5.57
		c-0.24-1.6-2.26-0.66-2.83-2.36c-0.96-2.91,0.77-5.74-0.59-8.13c-1.2-2.13-5.16,0.19-6.76-3.18c-1.02-2.15-2.16-6.66-4.52-7.46
		c-2.83-0.96-2.5,1.43-5.65,1.36c-3.12-0.07-4.71-2.32-7.52-2.32c-5.26,0-11.65,7.71-10.46,11.6c1.04,3.38,7.62,1.29,8.42,5.13
		c0.47,2.26-1.64,2.01-0.28,4.46c1.18,2.14,7.89-1.33,9.61,0.9c1.19,1.54-1.18,4.1,0.11,5.76c1.46,1.87,5.42-0.16,6.78,1.7
		c1.05,1.42-0.89,2.46-0.11,4.85C26.52,61.3,29.52,61.89,32,65.85z"/>
	<path class="st8" d="M14.27,32.27c2.74,1.08,8.26,3.7,12.66,9.5c7.28,9.59,5.88,20.48,5.54,22.72"/>
	<path class="st2" d="M42.65,67.25c-1.86,0.27-3.95,3.11-4,4.35c-0.13,3.2,1.8,4.74,3.15,4.74"/>
	<path class="st9" d="M70.01,52.91c0.14-2.75,4.28-5.27,8.14-5.21c2.86,0.04,6.96,1.51,7.54,4.67c0.53,2.92-2.17,5.94-4.97,6.45
		C74.46,59.94,69.83,56.37,70.01,52.91z"/>
	<path class="st9" d="M79.04,47.08c0.48,0.55,2.54,2.24,2.54,6.13c0,2.21-1.02,5.07-1.47,5.69"/>
	<path class="st10" d="M77.08,60.53c0.14-2.83,4.28-5.43,8.14-5.37c2.86,0.04,6.96,1.56,7.54,4.81c0.53,3.01-2.17,6.12-4.97,6.65
		C81.52,67.78,76.89,64.1,77.08,60.53z"/>
	<path class="st10" d="M86.72,55.64c0.48,0.57,1.93,2.45,1.92,5.2c-0.01,2.28-0.24,4.72-2,6.37"/>
	<path class="st1" d="M106.24,51.37c0,0,4.5,8.57,8.1,8.69c4.18,0.14,4.48-2.13,6.44-2.13c2.08,0,6.69,6.99,10.25,5.49
		c3.77-1.59,2.77-5.48,3.7-6.11c2.33-1.58,5.41-0.05,7.34,0.81c2.19,0.98,4.96,1.34,6.41-1.36c1.39-2.6-0.41-3.84,0.26-5.09
		c0.81-1.51,3.99-1.43,5.88-2.41c1.91-1,3.67-2.94,3.67-5.4c0-3.01-3.05-2.76-1.94-6.59c0.44-1.5,2.46-3.69,3.47-7.15
		c1-3.46,0.65-8.3-0.3-10.25c-1.81-3.71-6.47-6.8-8.74-4.37c-6.48,6.93-5.57,1.42-8.63,2.98c-1.7,0.86-2.84,4.5-3.4,5.97
		c-0.73,1.91-1.42,5.79-3.3,5.26c-1.04-0.29-1.84-1.48-3.17-1.01c-1.33,0.47-1.65,2.45-2.23,4.74c-0.53,2.14-0.74,4.46-2.89,4.56
		c-1.09,0.05-0.53-1.06-1.96-1.31c-1.43-0.25-2.69,1.67-3.13,3.96c-0.37,1.91-0.61,3.29-2.52,3.29c-1.43,0-1.77-2.33-4.34-1.69
		c-2.23,0.56-3.01,3.92-5.58,4.68c-3.27,0.98-5.5-0.08-5.5-0.08L106.24,51.37z"/>
	<path class="st3" d="M105.48,47.7c4.27,3.14,10.03,4.88,15.28,4.36c6.23-0.62,20.94-5.93,27.02-17.36"/>
</g>
</svg>
